<svg width="121" height="121" viewBox="0 0 121 121" fill="none" xmlns="http://www.w3.org/2000/svg">
<g clip-path="url(#clip0)">
<path d="M0.484619 0.42627L120.485 0.42627V120.426H0.484619L0.484619 0.42627Z" fill="#FF0066"/>
<path d="M41.319 39.042C45.1145 38.9867 48.152 35.8747 48.1154 32.0788C48.0784 28.2823 44.9813 25.2298 41.1849 25.2481C37.3885 25.2664 34.321 28.3484 34.3206 32.1448C34.3237 33.0583 34.5075 33.9621 34.8616 34.8041C35.2156 35.6462 35.7328 36.4098 36.3834 37.051C37.034 37.6922 37.8051 38.1983 38.6521 38.5401C39.4992 38.8819 40.4056 39.0527 41.319 39.0425V39.042Z" fill="white"/>
<path d="M26.8069 75.9685C26.4097 77.6668 26.2022 79.404 26.1882 81.1482C26.1882 87.2199 29.4807 91.2516 36.4791 91.2516C42.2822 91.2516 46.9908 87.8054 50.3752 82.2375L48.3061 90.5415H59.8261L66.4168 64.1414C68.063 57.45 71.25 53.9799 76.0885 53.9799C79.8947 53.9799 82.2615 56.3461 82.2615 60.2583C82.2802 61.5122 82.1068 62.7619 81.7477 63.9638L78.354 76.103C77.8686 77.7748 77.6262 79.5077 77.6344 81.2485C77.6344 87.0085 81.0282 91.2328 88.1269 91.2328C94.1991 91.2328 99.0375 87.3254 101.711 77.9607L97.1846 76.2085C94.9191 82.4869 92.9658 83.6194 91.4246 83.6194C89.8838 83.6194 89.0532 82.5929 89.0532 80.5332C89.0977 79.4525 89.2701 78.381 89.5669 77.341L92.8646 65.5097C93.605 63.0772 93.9867 60.5496 93.9976 58.0069C93.9976 49.1555 88.6454 44.5383 82.1607 44.5383C76.0885 44.5383 69.916 50.0147 66.8293 55.7799L69.09 45.4308H51.4979L49.0261 54.5508H57.263L52.1944 74.8261C48.21 83.6775 40.8952 83.8214 39.9783 83.6152C38.4708 83.2739 37.5108 82.703 37.5108 80.7347C37.5549 79.1414 37.7968 77.5599 38.2308 76.0261L45.9493 45.4069H26.4038L23.9368 54.5269H32.063L26.8069 75.9685Z" fill="white"/>
</g>
<defs>
<clipPath id="clip0">
<rect width="120" height="120" fill="white" transform="translate(0.484619 0.42627)"/>
</clipPath>
</defs>
</svg>
