<svg width="251" height="226" viewBox="0 0 251 226" fill="none" xmlns="http://www.w3.org/2000/svg">
<path fill-rule="evenodd" clip-rule="evenodd" d="M125.1 134.124C125.1 134.124 155.83 137.181 174.691 142.235C193.552 147.289 221.693 160.006 221.693 160.006C221.693 160.006 221.51 180.006 218.298 191.993C215.087 203.979 205.245 221.392 205.245 221.392C205.245 221.392 174.987 216.574 156.126 211.52C137.265 206.466 108.652 195.51 108.652 195.51C108.652 195.51 108.835 175.509 112.047 163.523C115.258 151.536 125.1 134.124 125.1 134.124ZM192.179 169.697C193.322 165.429 197.709 162.897 201.977 164.04L202.943 164.299C207.211 165.443 209.743 169.829 208.6 174.097C207.456 178.365 203.069 180.897 198.802 179.754L197.836 179.495C193.568 178.351 191.035 173.965 192.179 169.697ZM132.204 173.297C127.936 172.153 123.549 174.686 122.406 178.954C121.262 183.222 123.795 187.608 128.063 188.752L129.028 189.011C133.296 190.154 137.683 187.621 138.826 183.354C139.97 179.086 137.437 174.699 133.17 173.556L132.204 173.297Z" fill="#FFD362"/>
<path fill-rule="evenodd" clip-rule="evenodd" d="M55 0C35.4738 0 5 2 5 2C5 2 0 32.4738 0 52C0 71.5262 5 102 5 102C5 102 35.4738 107 55 107C74.5262 107 105 102 105 102C105 102 110 71.5262 110 52C110 32.4738 105 2 105 2C105 2 74.5262 0 55 0ZM83 82V26H27V82H83Z" fill="#FF9B62"/>
<path fill-rule="evenodd" clip-rule="evenodd" d="M214.021 17.4137L221.818 30.9185C222.482 32.0692 224.063 32.264 224.987 31.3091L234.583 21.391C235.279 20.6714 236.396 20.5779 237.179 21.2013C239.607 23.1335 244.59 27.3616 246.763 31.1249C248.936 34.8883 250.106 41.3175 250.565 44.3864C250.713 45.3765 250.074 46.2968 249.103 46.5398L235.716 49.8912C234.427 50.214 233.805 51.6807 234.469 52.8314L242.266 66.3361C242.768 67.2056 242.562 68.3009 241.761 68.9065C236.371 72.9835 216.353 87.9421 201.842 96.3198C187.439 104.635 170.99 110.781 166.429 112.421C165.679 112.691 164.856 112.477 164.326 111.882C161.377 108.573 151.707 97.4832 146.737 88.8749C141.767 80.2666 136.998 66.3475 135.606 62.1387C135.356 61.3822 135.583 60.5625 136.191 60.0481C139.892 56.9179 153.439 45.7456 167.842 37.4301C182.353 29.0525 205.317 19.1951 211.542 16.566C212.467 16.1754 213.519 16.5443 214.021 17.4137ZM209.892 29.33C208.512 26.9386 205.454 26.1191 203.062 27.4999L201.33 28.4999C198.939 29.8806 198.119 32.9386 199.5 35.33L200.5 37.062C201.881 39.4535 204.939 40.273 207.33 38.8922L209.062 37.8922C211.454 36.5115 212.273 33.4535 210.892 31.062L209.892 29.33Z" fill="black"/>
</svg>
