<svg width="121" height="121" viewBox="0 0 121 121" fill="none" xmlns="http://www.w3.org/2000/svg">
<path d="M12.3611 13.6152L108.609 13.6152V107.238H12.3611L12.3611 13.6152Z" fill="#0C0824"/>
<path d="M12.3611 13.6153L108.609 13.6153V107.238H12.3611L12.3611 13.6153ZM7.98486 111.614H112.985V9.23901L7.98486 9.23901L7.98486 111.614ZM78.7736 51.239C75.3161 51.239 74.1349 52.9903 74.1349 54.434C74.1349 56.009 74.9224 57.104 79.5611 59.5078C86.4311 62.834 88.5611 66.0253 88.5611 70.709C88.5611 77.7103 83.2249 81.4715 76.0061 81.4715C72.908 81.5863 69.8288 80.9426 67.0361 79.5965C66.7286 79.4653 66.6874 79.2478 66.6874 78.8953V72.4565C66.6874 72.0178 66.9049 71.8865 67.2124 72.1078C69.8351 73.7943 72.8879 74.69 76.0061 74.6878C79.4636 74.6878 80.9074 73.244 80.9074 71.2753C80.9074 69.7003 79.9024 68.3015 75.4811 66.0253C69.2674 63.0515 66.6874 60.0253 66.6874 55.0003C66.6874 49.3565 71.1049 44.6765 78.7624 44.6765C81.4279 44.5621 84.0895 44.9789 86.5924 45.9028C86.7365 45.9963 86.8531 46.1266 86.9302 46.2801C87.0073 46.4337 87.0422 46.605 87.0311 46.7765V52.7765C87.0311 53.1253 86.8136 53.3465 86.3749 53.2153C84.0617 51.8836 81.4311 51.2033 78.7624 51.2465L78.7736 51.239ZM41.1461 56.444C42.1511 56.5303 42.9386 56.5303 44.6899 56.5303C49.8086 56.5303 54.6199 54.7378 54.6199 47.7815C54.6199 42.224 51.1624 39.4265 45.3461 39.4265C43.5949 39.4265 41.9336 39.5128 41.1461 39.5578V56.444ZM33.3574 33.194C33.3574 32.8865 33.9686 32.669 34.3211 32.669C38.0816 32.5154 41.845 32.4428 45.6086 32.4515C57.7286 32.4515 62.4536 39.1003 62.4536 47.5903C62.4536 58.7015 54.4024 63.4715 44.5174 63.4715C42.8561 63.4715 42.2861 63.3853 41.1049 63.3853V80.1853C41.1049 80.534 40.9736 80.7103 40.5799 80.7103H33.8861C33.5374 80.7103 33.3611 80.579 33.3611 80.1853V33.2128L33.3574 33.194Z" fill="#31C5F0"/>
</svg>
