<svg width="384" height="296" viewBox="0 0 384 296" fill="none" xmlns="http://www.w3.org/2000/svg">
<path d="M350.222 60.2809H20.7701C15.7151 60.2809 11.6172 64.3788 11.6172 69.4338V286.584C11.6172 291.639 15.7151 295.737 20.7701 295.737H350.222C355.277 295.737 359.375 291.639 359.375 286.584V69.4338C359.375 64.3788 355.277 60.2809 350.222 60.2809Z" fill="#FFD362"/>
<path d="M339.604 45.4175H10.1529C5.09789 45.4175 1 49.5154 1 54.5704V271.72C1 276.775 5.09789 280.873 10.1529 280.873H339.604C344.659 280.873 348.757 276.775 348.757 271.72V54.5704C348.757 49.5154 344.659 45.4175 339.604 45.4175Z" stroke="white" stroke-miterlimit="10"/>
<path d="M1 67.991H348.757" stroke="white" stroke-miterlimit="10"/>
<path opacity="0.3" d="M300.349 120.914H212.199C210.351 120.914 208.853 122.413 208.853 124.261V132.195C208.853 134.043 210.351 135.542 212.199 135.542H300.349C302.197 135.542 303.695 134.043 303.695 132.195V124.261C303.695 122.413 302.197 120.914 300.349 120.914Z" fill="#6C67EF"/>
<path opacity="0.3" d="M318.515 161.494H194.032C192.184 161.494 190.686 162.992 190.686 164.841V169.944C190.686 171.792 192.184 173.29 194.032 173.29H318.515C320.363 173.29 321.861 171.792 321.861 169.944V164.841C321.861 162.992 320.363 161.494 318.515 161.494Z" fill="#6C67EF"/>
<path opacity="0.3" d="M318.515 193.58H194.032C192.184 193.58 190.686 195.078 190.686 196.927V202.03C190.686 203.878 192.184 205.376 194.032 205.376H318.515C320.363 205.376 321.861 203.878 321.861 202.03V196.927C321.861 195.078 320.363 193.58 318.515 193.58Z" fill="#6C67EF"/>
<path opacity="0.3" d="M318.515 225.666H194.032C192.184 225.666 190.686 227.164 190.686 229.013V234.116C190.686 235.964 192.184 237.463 194.032 237.463H318.515C320.363 237.463 321.861 235.964 321.861 234.116V229.013C321.861 227.164 320.363 225.666 318.515 225.666Z" fill="#6C67EF"/>
<path d="M305.068 116.196H216.918C215.07 116.196 213.571 117.694 213.571 119.542V127.477C213.571 129.325 215.07 130.823 216.918 130.823H305.068C306.916 130.823 308.414 129.325 308.414 127.477V119.542C308.414 117.694 306.916 116.196 305.068 116.196Z" stroke="white" stroke-miterlimit="10"/>
<path d="M323.233 156.775H198.751C196.903 156.775 195.404 158.274 195.404 160.122V165.225C195.404 167.073 196.903 168.572 198.751 168.572H323.233C325.082 168.572 326.58 167.073 326.58 165.225V160.122C326.58 158.274 325.082 156.775 323.233 156.775Z" stroke="white" stroke-miterlimit="10"/>
<path d="M323.233 188.861H198.751C196.903 188.861 195.404 190.36 195.404 192.208V197.311C195.404 199.159 196.903 200.658 198.751 200.658H323.233C325.082 200.658 326.58 199.159 326.58 197.311V192.208C326.58 190.36 325.082 188.861 323.233 188.861Z" stroke="white" stroke-miterlimit="10"/>
<path d="M323.233 220.948H198.751C196.903 220.948 195.404 222.446 195.404 224.294V229.397C195.404 231.246 196.903 232.744 198.751 232.744H323.233C325.082 232.744 326.58 231.246 326.58 229.397V224.294C326.58 222.446 325.082 220.948 323.233 220.948Z" stroke="white" stroke-miterlimit="10"/>
<path opacity="0.3" d="M27.4235 66.651C31.3325 66.651 34.5014 63.4822 34.5014 59.5732C34.5014 55.6642 31.3325 52.4954 27.4235 52.4954C23.5146 52.4954 20.3457 55.6642 20.3457 59.5732C20.3457 63.4822 23.5146 66.651 27.4235 66.651Z" fill="#FFD362"/>
<path opacity="0.3" d="M47.2419 66.651C51.1509 66.651 54.3197 63.4822 54.3197 59.5732C54.3197 55.6642 51.1509 52.4954 47.2419 52.4954C43.3329 52.4954 40.1641 55.6642 40.1641 59.5732C40.1641 63.4822 43.3329 66.651 47.2419 66.651Z" fill="#FFD362"/>
<path opacity="0.3" d="M67.0602 66.651C70.9692 66.651 74.1381 63.4822 74.1381 59.5732C74.1381 55.6642 70.9692 52.4954 67.0602 52.4954C63.1513 52.4954 59.9824 55.6642 59.9824 59.5732C59.9824 63.4822 63.1513 66.651 67.0602 66.651Z" fill="#FFD362"/>
<path d="M30.2556 63.8198C34.1645 63.8198 37.3334 60.651 37.3334 56.742C37.3334 52.833 34.1645 49.6642 30.2556 49.6642C26.3466 49.6642 23.1777 52.833 23.1777 56.742C23.1777 60.651 26.3466 63.8198 30.2556 63.8198Z" stroke="white" stroke-miterlimit="10"/>
<path d="M50.073 63.8198C53.9819 63.8198 57.1508 60.651 57.1508 56.742C57.1508 52.833 53.9819 49.6642 50.073 49.6642C46.164 49.6642 42.9951 52.833 42.9951 56.742C42.9951 60.651 46.164 63.8198 50.073 63.8198Z" stroke="white" stroke-miterlimit="10"/>
<path d="M69.8903 63.8198C73.7993 63.8198 76.9681 60.651 76.9681 56.742C76.9681 52.833 73.7993 49.6642 69.8903 49.6642C65.9813 49.6642 62.8125 52.833 62.8125 56.742C62.8125 60.651 65.9813 63.8198 69.8903 63.8198Z" stroke="white" stroke-miterlimit="10"/>
<path d="M110.873 270.964C109.688 265.506 109.374 258.05 109.773 252.864C109.773 252.864 103.781 226.541 99.0663 224.085L99.0648 224.086C98.9926 224.179 96.7046 227.178 96.4144 236.46C96.1197 245.889 92.7812 252.077 92.7812 252.077C92.7812 252.077 93.8616 263.83 93.2439 270.964L110.873 270.964Z" fill="#FFD362"/>
<path d="M154.461 103.456H45.7188C44.2458 103.456 42.7872 103.746 41.4263 104.309C40.0654 104.873 38.8289 105.699 37.7873 106.741C36.7457 107.782 35.9195 109.019 35.3558 110.38C34.7921 111.741 34.502 113.199 34.502 114.672V259.747C34.502 261.22 34.7921 262.679 35.3558 264.04C35.9195 265.401 36.7457 266.637 37.7873 267.679C38.8289 268.721 40.0654 269.547 41.4263 270.11C42.7872 270.674 44.2458 270.964 45.7188 270.964H83.8706C82.5965 265.68 81.0126 257.426 82.6168 251.688L82.616 251.684L82.617 251.687C82.6919 251.419 82.7715 251.155 82.8606 250.898C83.9624 247.174 84.3297 243.271 83.942 239.407C84.6503 236.105 84.6503 232.69 83.942 229.388C82.7634 223.889 81.9383 218.486 81.9383 218.486C81.9383 218.486 81.2885 211.218 81.8558 206.763C81.8684 206.665 81.883 206.573 81.8967 206.477C81.6965 206.432 81.5842 206.406 81.5842 206.406C81.5842 206.406 83.254 198.843 83.8432 194.03C83.9824 192.894 84.1655 191.454 84.3638 189.918C83.8197 189.828 83.2842 189.692 82.7629 189.512C77.4591 187.646 75.7893 170.752 75.7893 170.752V165.399C75.7893 165.399 74.0214 157.198 80.2092 153.564C86.1677 150.064 88.5467 149.107 88.7149 149.041C88.7603 149.008 88.8046 148.979 88.8509 148.943C89.5244 148.414 90.0574 147.728 90.4032 146.945C90.4114 146.81 90.4134 146.676 90.409 146.543C90.3084 144.624 88.9726 142.879 87.7051 141.356C86.624 140.057 85.5429 138.759 84.4618 137.46C84.0914 137.073 83.8068 136.612 83.6265 136.108C83.5581 135.83 83.5284 135.543 83.5383 135.257C83.5374 135.151 83.538 135.045 83.5402 134.939C83.5578 133.971 83.5841 133.003 83.6191 132.035C83.6495 131.189 83.8624 130.122 84.6905 129.948C85.1213 129.858 85.6914 130.016 85.9191 129.639C85.9955 129.484 86.015 129.307 85.9742 129.139C85.9714 129.151 85.9707 129.164 85.9671 129.177C85.9643 129.161 85.9616 129.145 85.9587 129.129C85.7883 128.451 85.6855 127.758 85.6517 127.06C85.6426 126.745 85.6876 126.43 85.7848 126.13C86.2646 124.726 87.9166 124.15 89.3763 123.886C90.8361 123.621 92.4747 123.393 93.391 122.226C93.6362 121.839 93.9022 121.465 94.1878 121.106C94.6081 120.724 95.1246 120.463 95.6817 120.352C97.4938 119.894 99.4079 120.064 101.111 120.834C101.817 121.156 102.526 121.59 103.301 121.541C104.106 121.49 104.793 120.924 105.587 120.786C106.87 120.564 108.097 121.525 108.729 122.663C109.131 123.388 109.331 124.206 109.311 125.034C109.326 125.858 109.029 126.657 108.478 127.271C107.926 127.857 107.102 128.259 106.873 129.031C106.78 129.345 106.801 129.683 106.719 130C106.708 130.04 106.692 130.077 106.678 130.115C106.693 130.135 106.71 130.153 106.725 130.173C107.691 131.446 108.338 132.931 108.613 134.505C108.888 136.079 108.782 137.696 108.305 139.221C107.828 140.745 106.993 142.134 105.87 143.27C104.747 144.407 103.369 145.258 101.85 145.753C101.846 145.853 101.842 145.952 101.842 146.052C101.814 146.671 101.919 147.289 102.15 147.864C102.381 148.44 102.733 148.958 103.182 149.386L111.934 152.975C111.934 152.975 117.202 152.336 119.104 160.198C119.409 161.505 119.518 162.85 119.429 164.189C119.36 165.375 119.521 167.462 120.872 170.163C123.033 174.484 122.541 184.405 118.122 185.387C113.935 186.317 112.307 185.926 112.146 185.882L112.137 186.056C112.206 187.917 112.868 203.972 115.273 205.914C115.938 206.452 115.811 206.815 115.266 207.059L115.267 207.061C115.267 207.061 115.271 207.164 115.282 207.349C115.354 208.524 115.725 212.995 117.335 215.539C119.202 218.486 119.006 235.479 119.006 235.479L120.282 245.497C120.282 245.497 119.497 251.685 120.282 252.765C120.728 253.377 121.268 262.864 121.653 270.964H154.461C157.436 270.964 160.289 269.782 162.392 267.679C164.496 265.575 165.678 262.722 165.678 259.747V114.672C165.678 113.199 165.388 111.741 164.824 110.38C164.26 109.019 163.434 107.782 162.392 106.741C161.351 105.699 160.114 104.873 158.753 104.309C157.393 103.746 155.934 103.456 154.461 103.456V103.456Z" fill="#6C67EF"/>
<path d="M143.137 90.7156H34.3945C28.1997 90.7156 23.1777 95.7375 23.1777 101.932V247.007C23.1777 253.202 28.1997 258.224 34.3945 258.224H143.137C149.332 258.224 154.354 253.202 154.354 247.007V101.932C154.354 95.7375 149.332 90.7156 143.137 90.7156Z" stroke="white" stroke-miterlimit="10"/>
<path d="M338.084 3.5188C336.073 3.63241 334.133 4.30407 332.482 5.45846C330.831 6.61285 329.534 8.20433 328.737 10.0545C326.399 15.7044 329.409 22.341 333.927 26.461C338.445 30.581 344.248 32.9359 349.521 36.0313C356.603 40.189 362.967 45.9605 366.511 53.3691C370.054 60.7777 370.431 69.9549 366.266 77.0326C362.4 83.602 355.37 87.5337 348.665 91.1598" stroke="white" stroke-miterlimit="10"/>
<path d="M344.039 8.02154C348.599 8.02154 352.296 6.22586 352.296 4.01077C352.296 1.79568 348.599 0 344.039 0C339.478 0 335.781 1.79568 335.781 4.01077C335.781 6.22586 339.478 8.02154 344.039 8.02154Z" fill="white"/>
<path d="M350.645 34.4454C355.206 34.4454 358.903 32.6497 358.903 30.4346C358.903 28.2195 355.206 26.4238 350.645 26.4238C346.085 26.4238 342.388 28.2195 342.388 30.4346C342.388 32.6497 346.085 34.4454 350.645 34.4454Z" fill="#FFD362"/>
<path d="M335.546 38.6922C340.106 38.6922 343.803 36.8965 343.803 34.6814C343.803 32.4663 340.106 30.6707 335.546 30.6707C330.985 30.6707 327.288 32.4663 327.288 34.6814C327.288 36.8965 330.985 38.6922 335.546 38.6922Z" fill="#6C67EF"/>
<path d="M359.138 60.8693C363.699 60.8693 367.396 59.0736 367.396 56.8586C367.396 54.6435 363.699 52.8478 359.138 52.8478C354.578 52.8478 350.881 54.6435 350.881 56.8586C350.881 59.0736 354.578 60.8693 359.138 60.8693Z" fill="#FFD362"/>
<path d="M375.653 60.8693C380.213 60.8693 383.91 59.0736 383.91 56.8586C383.91 54.6435 380.213 52.8478 375.653 52.8478C371.093 52.8478 367.396 54.6435 367.396 56.8586C367.396 59.0736 371.093 60.8693 375.653 60.8693Z" fill="#6C67EF"/>
</svg>
