<svg width="1126" height="1846" viewBox="0 0 1126 1846" fill="none" xmlns="http://www.w3.org/2000/svg">
<rect x="1125.35" y="433.456" width="25.4886" height="25.4886" transform="rotate(135 1125.35 433.456)" fill="#FFBF18"/>
<rect x="107.046" y="620.897" width="25.4886" height="25.4886" transform="rotate(135 107.046 620.897)" fill="#FFBF18"/>
<rect x="617.101" y="509.154" width="25.4886" height="25.4886" transform="rotate(135 617.101 509.154)" fill="#FFBF18"/>
<rect x="907.274" y="651.536" width="25.4886" height="25.4886" transform="rotate(135 907.274 651.536)" fill="#100E34"/>
<rect x="861.315" y="309.998" width="25.4886" height="25.4886" transform="rotate(135 861.315 309.998)" fill="#100E34"/>
<rect x="362.074" y="394.707" width="25.4886" height="25.4886" transform="rotate(135 362.074 394.707)" fill="#100E34"/>
<rect x="689.194" y="869.616" width="25.4886" height="25.4886" transform="rotate(135 689.194 869.616)" fill="#4F48EC"/>
<rect x="651.345" y="132.47" width="25.4886" height="25.4886" transform="rotate(135 651.345 132.47)" fill="#4F48EC"/>
<rect y="1450.9" width="25.4886" height="25.4886" transform="rotate(-45 0 1450.9)" fill="#FFBF18"/>
<rect x="1018.31" y="1263.46" width="25.4886" height="25.4886" transform="rotate(-45 1018.31 1263.46)" fill="#FFBF18"/>
<rect x="508.252" y="1375.2" width="25.4886" height="25.4886" transform="rotate(-45 508.252 1375.2)" fill="#FFBF18"/>
<rect x="218.08" y="1232.82" width="25.4886" height="25.4886" transform="rotate(-45 218.08 1232.82)" fill="#100E34"/>
<rect x="264.039" y="1574.36" width="25.4886" height="25.4886" transform="rotate(-45 264.039 1574.36)" fill="#100E34"/>
<rect x="763.28" y="1489.65" width="25.4886" height="25.4886" transform="rotate(-45 763.28 1489.65)" fill="#100E34"/>
<rect x="436.16" y="1014.74" width="25.4886" height="25.4886" transform="rotate(-45 436.16 1014.74)" fill="#4F48EC"/>
<rect x="474.009" y="1751.88" width="25.4886" height="25.4886" transform="rotate(-45 474.009 1751.88)" fill="#4F48EC"/>
</svg>
