<svg width="280" height="222" viewBox="0 0 280 222" fill="none" xmlns="http://www.w3.org/2000/svg">
<g filter="url(#filter0_i)">
<rect x="80" width="200" height="60" fill="white"/>
</g>
<g filter="url(#filter1_i)">
<rect y="81" width="200" height="60" fill="white"/>
</g>
<g filter="url(#filter2_i)">
<rect x="80" y="162" width="200" height="60" fill="white"/>
</g>
<path d="M101.32 35V23.625H105.039C106.273 23.625 107.201 23.8802 107.82 24.3906C108.445 24.901 108.758 25.6562 108.758 26.6562C108.758 27.1875 108.607 27.6589 108.305 28.0703C108.003 28.4766 107.591 28.7917 107.07 29.0156C107.685 29.1875 108.169 29.5156 108.523 30C108.883 30.4792 109.062 31.0521 109.062 31.7188C109.062 32.7396 108.732 33.5417 108.07 34.125C107.409 34.7083 106.474 35 105.266 35H101.32ZM102.82 29.6797V33.7734H105.297C105.995 33.7734 106.544 33.5938 106.945 33.2344C107.352 32.8698 107.555 32.3698 107.555 31.7344C107.555 30.3646 106.81 29.6797 105.32 29.6797H102.82ZM102.82 28.4766H105.086C105.742 28.4766 106.266 28.3125 106.656 27.9844C107.052 27.6562 107.25 27.2109 107.25 26.6484C107.25 26.0234 107.068 25.5703 106.703 25.2891C106.339 25.0026 105.784 24.8594 105.039 24.8594H102.82V28.4766ZM110.68 30.6953C110.68 29.8672 110.841 29.1224 111.164 28.4609C111.492 27.7995 111.945 27.2891 112.523 26.9297C113.107 26.5703 113.771 26.3906 114.516 26.3906C115.667 26.3906 116.596 26.7891 117.305 27.5859C118.018 28.3828 118.375 29.4427 118.375 30.7656V30.8672C118.375 31.6901 118.216 32.4297 117.898 33.0859C117.586 33.737 117.135 34.2448 116.547 34.6094C115.964 34.974 115.292 35.1562 114.531 35.1562C113.385 35.1562 112.456 34.7578 111.742 33.9609C111.034 33.1641 110.68 32.1094 110.68 30.7969V30.6953ZM112.133 30.8672C112.133 31.8047 112.349 32.5573 112.781 33.125C113.219 33.6927 113.802 33.9766 114.531 33.9766C115.266 33.9766 115.849 33.6901 116.281 33.1172C116.714 32.5391 116.93 31.7318 116.93 30.6953C116.93 29.7682 116.708 29.0182 116.266 28.4453C115.828 27.8672 115.245 27.5781 114.516 27.5781C113.802 27.5781 113.227 27.862 112.789 28.4297C112.352 28.9974 112.133 29.8099 112.133 30.8672ZM122.148 24.5V26.5469H123.727V27.6641H122.148V32.9062C122.148 33.2448 122.219 33.5 122.359 33.6719C122.5 33.8385 122.74 33.9219 123.078 33.9219C123.245 33.9219 123.474 33.8906 123.766 33.8281V35C123.385 35.1042 123.016 35.1562 122.656 35.1562C122.01 35.1562 121.523 34.9609 121.195 34.5703C120.867 34.1797 120.703 33.625 120.703 32.9062V27.6641H119.164V26.5469H120.703V24.5H122.148ZM127.383 24.5V26.5469H128.961V27.6641H127.383V32.9062C127.383 33.2448 127.453 33.5 127.594 33.6719C127.734 33.8385 127.974 33.9219 128.312 33.9219C128.479 33.9219 128.708 33.8906 129 33.8281V35C128.62 35.1042 128.25 35.1562 127.891 35.1562C127.245 35.1562 126.758 34.9609 126.43 34.5703C126.102 34.1797 125.938 33.625 125.938 32.9062V27.6641H124.398V26.5469H125.938V24.5H127.383ZM130.117 30.6953C130.117 29.8672 130.279 29.1224 130.602 28.4609C130.93 27.7995 131.383 27.2891 131.961 26.9297C132.544 26.5703 133.208 26.3906 133.953 26.3906C135.104 26.3906 136.034 26.7891 136.742 27.5859C137.456 28.3828 137.812 29.4427 137.812 30.7656V30.8672C137.812 31.6901 137.654 32.4297 137.336 33.0859C137.023 33.737 136.573 34.2448 135.984 34.6094C135.401 34.974 134.729 35.1562 133.969 35.1562C132.823 35.1562 131.893 34.7578 131.18 33.9609C130.471 33.1641 130.117 32.1094 130.117 30.7969V30.6953ZM131.57 30.8672C131.57 31.8047 131.786 32.5573 132.219 33.125C132.656 33.6927 133.24 33.9766 133.969 33.9766C134.703 33.9766 135.286 33.6901 135.719 33.1172C136.151 32.5391 136.367 31.7318 136.367 30.6953C136.367 29.7682 136.146 29.0182 135.703 28.4453C135.266 27.8672 134.682 27.5781 133.953 27.5781C133.24 27.5781 132.664 27.862 132.227 28.4297C131.789 28.9974 131.57 29.8099 131.57 30.8672ZM140.984 26.5469L141.023 27.4844C141.643 26.7552 142.479 26.3906 143.531 26.3906C144.714 26.3906 145.518 26.8438 145.945 27.75C146.227 27.3438 146.591 27.0156 147.039 26.7656C147.492 26.5156 148.026 26.3906 148.641 26.3906C150.495 26.3906 151.438 27.3724 151.469 29.3359V35H150.023V29.4219C150.023 28.8177 149.885 28.3672 149.609 28.0703C149.333 27.7682 148.87 27.6172 148.219 27.6172C147.682 27.6172 147.237 27.7786 146.883 28.1016C146.529 28.4193 146.323 28.849 146.266 29.3906V35H144.812V29.4609C144.812 28.2318 144.211 27.6172 143.008 27.6172C142.06 27.6172 141.411 28.0208 141.062 28.8281V35H139.617V26.5469H140.984ZM157.852 35V23.625H161.57C162.805 23.625 163.732 23.8802 164.352 24.3906C164.977 24.901 165.289 25.6562 165.289 26.6562C165.289 27.1875 165.138 27.6589 164.836 28.0703C164.534 28.4766 164.122 28.7917 163.602 29.0156C164.216 29.1875 164.701 29.5156 165.055 30C165.414 30.4792 165.594 31.0521 165.594 31.7188C165.594 32.7396 165.263 33.5417 164.602 34.125C163.94 34.7083 163.005 35 161.797 35H157.852ZM159.352 29.6797V33.7734H161.828C162.526 33.7734 163.076 33.5938 163.477 33.2344C163.883 32.8698 164.086 32.3698 164.086 31.7344C164.086 30.3646 163.341 29.6797 161.852 29.6797H159.352ZM159.352 28.4766H161.617C162.273 28.4766 162.797 28.3125 163.188 27.9844C163.583 27.6562 163.781 27.2109 163.781 26.6484C163.781 26.0234 163.599 25.5703 163.234 25.2891C162.87 25.0026 162.315 24.8594 161.57 24.8594H159.352V28.4766ZM167.211 30.6953C167.211 29.8672 167.372 29.1224 167.695 28.4609C168.023 27.7995 168.477 27.2891 169.055 26.9297C169.638 26.5703 170.302 26.3906 171.047 26.3906C172.198 26.3906 173.128 26.7891 173.836 27.5859C174.549 28.3828 174.906 29.4427 174.906 30.7656V30.8672C174.906 31.6901 174.747 32.4297 174.43 33.0859C174.117 33.737 173.667 34.2448 173.078 34.6094C172.495 34.974 171.823 35.1562 171.062 35.1562C169.917 35.1562 168.987 34.7578 168.273 33.9609C167.565 33.1641 167.211 32.1094 167.211 30.7969V30.6953ZM168.664 30.8672C168.664 31.8047 168.88 32.5573 169.312 33.125C169.75 33.6927 170.333 33.9766 171.062 33.9766C171.797 33.9766 172.38 33.6901 172.812 33.1172C173.245 32.5391 173.461 31.7318 173.461 30.6953C173.461 29.7682 173.24 29.0182 172.797 28.4453C172.359 27.8672 171.776 27.5781 171.047 27.5781C170.333 27.5781 169.758 27.862 169.32 28.4297C168.883 28.9974 168.664 29.8099 168.664 30.8672ZM180.805 27.8438C180.586 27.8073 180.349 27.7891 180.094 27.7891C179.146 27.7891 178.503 28.1927 178.164 29V35H176.719V26.5469H178.125L178.148 27.5234C178.622 26.7682 179.294 26.3906 180.164 26.3906C180.445 26.3906 180.659 26.4271 180.805 26.5V27.8438ZM181.633 30.7031C181.633 29.4062 181.94 28.3646 182.555 27.5781C183.169 26.7865 183.974 26.3906 184.969 26.3906C185.958 26.3906 186.742 26.7292 187.32 27.4062V23H188.766V35H187.438L187.367 34.0938C186.789 34.8021 185.984 35.1562 184.953 35.1562C183.974 35.1562 183.174 34.7552 182.555 33.9531C181.94 33.151 181.633 32.1042 181.633 30.8125V30.7031ZM183.078 30.8672C183.078 31.8255 183.276 32.5755 183.672 33.1172C184.068 33.6589 184.615 33.9297 185.312 33.9297C186.229 33.9297 186.898 33.5182 187.32 32.6953V28.8125C186.888 28.0156 186.224 27.6172 185.328 27.6172C184.62 27.6172 184.068 27.8906 183.672 28.4375C183.276 28.9844 183.078 29.7943 183.078 30.8672ZM194.523 35.1562C193.378 35.1562 192.445 34.7812 191.727 34.0312C191.008 33.276 190.648 32.2682 190.648 31.0078V30.7422C190.648 29.9036 190.807 29.1562 191.125 28.5C191.448 27.8385 191.896 27.3229 192.469 26.9531C193.047 26.5781 193.672 26.3906 194.344 26.3906C195.443 26.3906 196.297 26.7526 196.906 27.4766C197.516 28.2005 197.82 29.237 197.82 30.5859V31.1875H192.094C192.115 32.0208 192.357 32.6953 192.82 33.2109C193.289 33.7214 193.883 33.9766 194.602 33.9766C195.112 33.9766 195.544 33.8724 195.898 33.6641C196.253 33.4557 196.562 33.1797 196.828 32.8359L197.711 33.5234C197.003 34.612 195.94 35.1562 194.523 35.1562ZM194.344 27.5781C193.76 27.5781 193.271 27.7917 192.875 28.2188C192.479 28.6406 192.234 29.2344 192.141 30H196.375V29.8906C196.333 29.1562 196.135 28.5885 195.781 28.1875C195.427 27.7812 194.948 27.5781 194.344 27.5781ZM203.586 27.8438C203.367 27.8073 203.13 27.7891 202.875 27.7891C201.927 27.7891 201.284 28.1927 200.945 29V35H199.5V26.5469H200.906L200.93 27.5234C201.404 26.7682 202.076 26.3906 202.945 26.3906C203.227 26.3906 203.44 26.4271 203.586 26.5V27.8438Z" fill="#6C67EF" fill-opacity="0.2"/>
<path d="M29.1797 105.859H25.5234V116H24.0312V105.859H20.3828V104.625H29.1797V105.859ZM29.4766 111.695C29.4766 110.867 29.638 110.122 29.9609 109.461C30.2891 108.799 30.7422 108.289 31.3203 107.93C31.9036 107.57 32.5677 107.391 33.3125 107.391C34.4635 107.391 35.3932 107.789 36.1016 108.586C36.8151 109.383 37.1719 110.443 37.1719 111.766V111.867C37.1719 112.69 37.013 113.43 36.6953 114.086C36.3828 114.737 35.9323 115.245 35.3438 115.609C34.7604 115.974 34.0885 116.156 33.3281 116.156C32.1823 116.156 31.2526 115.758 30.5391 114.961C29.8307 114.164 29.4766 113.109 29.4766 111.797V111.695ZM30.9297 111.867C30.9297 112.805 31.1458 113.557 31.5781 114.125C32.0156 114.693 32.599 114.977 33.3281 114.977C34.0625 114.977 34.6458 114.69 35.0781 114.117C35.5104 113.539 35.7266 112.732 35.7266 111.695C35.7266 110.768 35.5052 110.018 35.0625 109.445C34.625 108.867 34.0417 108.578 33.3125 108.578C32.599 108.578 32.0234 108.862 31.5859 109.43C31.1484 109.997 30.9297 110.81 30.9297 111.867ZM46.125 111.867C46.125 113.154 45.8307 114.19 45.2422 114.977C44.6536 115.763 43.8568 116.156 42.8516 116.156C41.8255 116.156 41.0182 115.831 40.4297 115.18V119.25H38.9844V107.547H40.3047L40.375 108.484C40.9635 107.755 41.7812 107.391 42.8281 107.391C43.8438 107.391 44.6458 107.773 45.2344 108.539C45.8281 109.305 46.125 110.37 46.125 111.734V111.867ZM44.6797 111.703C44.6797 110.75 44.4766 109.997 44.0703 109.445C43.6641 108.893 43.1068 108.617 42.3984 108.617C41.5234 108.617 40.8672 109.005 40.4297 109.781V113.82C40.862 114.591 41.5234 114.977 42.4141 114.977C43.1068 114.977 43.6562 114.703 44.0625 114.156C44.474 113.604 44.6797 112.786 44.6797 111.703ZM52.1641 116V104.625H55.8828C57.1172 104.625 58.0443 104.88 58.6641 105.391C59.2891 105.901 59.6016 106.656 59.6016 107.656C59.6016 108.188 59.4505 108.659 59.1484 109.07C58.8464 109.477 58.4349 109.792 57.9141 110.016C58.5286 110.188 59.013 110.516 59.3672 111C59.7266 111.479 59.9062 112.052 59.9062 112.719C59.9062 113.74 59.5755 114.542 58.9141 115.125C58.2526 115.708 57.3177 116 56.1094 116H52.1641ZM53.6641 110.68V114.773H56.1406C56.8385 114.773 57.388 114.594 57.7891 114.234C58.1953 113.87 58.3984 113.37 58.3984 112.734C58.3984 111.365 57.6536 110.68 56.1641 110.68H53.6641ZM53.6641 109.477H55.9297C56.5859 109.477 57.1094 109.312 57.5 108.984C57.8958 108.656 58.0938 108.211 58.0938 107.648C58.0938 107.023 57.9115 106.57 57.5469 106.289C57.1823 106.003 56.6276 105.859 55.8828 105.859H53.6641V109.477ZM61.5234 111.695C61.5234 110.867 61.6849 110.122 62.0078 109.461C62.3359 108.799 62.7891 108.289 63.3672 107.93C63.9505 107.57 64.6146 107.391 65.3594 107.391C66.5104 107.391 67.4401 107.789 68.1484 108.586C68.862 109.383 69.2188 110.443 69.2188 111.766V111.867C69.2188 112.69 69.0599 113.43 68.7422 114.086C68.4297 114.737 67.9792 115.245 67.3906 115.609C66.8073 115.974 66.1354 116.156 65.375 116.156C64.2292 116.156 63.2995 115.758 62.5859 114.961C61.8776 114.164 61.5234 113.109 61.5234 111.797V111.695ZM62.9766 111.867C62.9766 112.805 63.1927 113.557 63.625 114.125C64.0625 114.693 64.6458 114.977 65.375 114.977C66.1094 114.977 66.6927 114.69 67.125 114.117C67.5573 113.539 67.7734 112.732 67.7734 111.695C67.7734 110.768 67.5521 110.018 67.1094 109.445C66.6719 108.867 66.0885 108.578 65.3594 108.578C64.6458 108.578 64.0703 108.862 63.6328 109.43C63.1953 109.997 62.9766 110.81 62.9766 111.867ZM75.1172 108.844C74.8984 108.807 74.6615 108.789 74.4062 108.789C73.4583 108.789 72.8151 109.193 72.4766 110V116H71.0312V107.547H72.4375L72.4609 108.523C72.9349 107.768 73.6068 107.391 74.4766 107.391C74.7578 107.391 74.9714 107.427 75.1172 107.5V108.844ZM75.9453 111.703C75.9453 110.406 76.2526 109.365 76.8672 108.578C77.4818 107.786 78.2865 107.391 79.2812 107.391C80.2708 107.391 81.0547 107.729 81.6328 108.406V104H83.0781V116H81.75L81.6797 115.094C81.1016 115.802 80.2969 116.156 79.2656 116.156C78.2865 116.156 77.487 115.755 76.8672 114.953C76.2526 114.151 75.9453 113.104 75.9453 111.812V111.703ZM77.3906 111.867C77.3906 112.826 77.5885 113.576 77.9844 114.117C78.3802 114.659 78.9271 114.93 79.625 114.93C80.5417 114.93 81.2109 114.518 81.6328 113.695V109.812C81.2005 109.016 80.5365 108.617 79.6406 108.617C78.9323 108.617 78.3802 108.891 77.9844 109.438C77.5885 109.984 77.3906 110.794 77.3906 111.867ZM88.8359 116.156C87.6901 116.156 86.7578 115.781 86.0391 115.031C85.3203 114.276 84.9609 113.268 84.9609 112.008V111.742C84.9609 110.904 85.1198 110.156 85.4375 109.5C85.7604 108.839 86.2083 108.323 86.7812 107.953C87.3594 107.578 87.9844 107.391 88.6562 107.391C89.7552 107.391 90.6094 107.753 91.2188 108.477C91.8281 109.201 92.1328 110.237 92.1328 111.586V112.188H86.4062C86.4271 113.021 86.6693 113.695 87.1328 114.211C87.6016 114.721 88.1953 114.977 88.9141 114.977C89.4245 114.977 89.8568 114.872 90.2109 114.664C90.5651 114.456 90.875 114.18 91.1406 113.836L92.0234 114.523C91.3151 115.612 90.2526 116.156 88.8359 116.156ZM88.6562 108.578C88.0729 108.578 87.5833 108.792 87.1875 109.219C86.7917 109.641 86.5469 110.234 86.4531 111H90.6875V110.891C90.6458 110.156 90.4479 109.589 90.0938 109.188C89.7396 108.781 89.2604 108.578 88.6562 108.578ZM97.8984 108.844C97.6797 108.807 97.4427 108.789 97.1875 108.789C96.2396 108.789 95.5964 109.193 95.2578 110V116H93.8125V107.547H95.2188L95.2422 108.523C95.7161 107.768 96.388 107.391 97.2578 107.391C97.5391 107.391 97.7526 107.427 97.8984 107.5V108.844Z" fill="#6C67EF" fill-opacity="0.2"/>
<path d="M102.828 195.773H108.219V197H101.32V185.625H102.828V195.773ZM113.211 197.156C112.065 197.156 111.133 196.781 110.414 196.031C109.695 195.276 109.336 194.268 109.336 193.008V192.742C109.336 191.904 109.495 191.156 109.812 190.5C110.135 189.839 110.583 189.323 111.156 188.953C111.734 188.578 112.359 188.391 113.031 188.391C114.13 188.391 114.984 188.753 115.594 189.477C116.203 190.201 116.508 191.237 116.508 192.586V193.188H110.781C110.802 194.021 111.044 194.695 111.508 195.211C111.977 195.721 112.57 195.977 113.289 195.977C113.799 195.977 114.232 195.872 114.586 195.664C114.94 195.456 115.25 195.18 115.516 194.836L116.398 195.523C115.69 196.612 114.628 197.156 113.211 197.156ZM113.031 189.578C112.448 189.578 111.958 189.792 111.562 190.219C111.167 190.641 110.922 191.234 110.828 192H115.062V191.891C115.021 191.156 114.823 190.589 114.469 190.188C114.115 189.781 113.635 189.578 113.031 189.578ZM118.898 197V189.664H117.562V188.547H118.898V187.68C118.898 186.773 119.141 186.073 119.625 185.578C120.109 185.083 120.794 184.836 121.68 184.836C122.013 184.836 122.344 184.88 122.672 184.969L122.594 186.141C122.349 186.094 122.089 186.07 121.812 186.07C121.344 186.07 120.982 186.208 120.727 186.484C120.471 186.755 120.344 187.146 120.344 187.656V188.547H122.148V189.664H120.344V197H118.898ZM125.711 186.5V188.547H127.289V189.664H125.711V194.906C125.711 195.245 125.781 195.5 125.922 195.672C126.062 195.839 126.302 195.922 126.641 195.922C126.807 195.922 127.036 195.891 127.328 195.828V197C126.948 197.104 126.578 197.156 126.219 197.156C125.573 197.156 125.086 196.961 124.758 196.57C124.43 196.18 124.266 195.625 124.266 194.906V189.664H122.727V188.547H124.266V186.5H125.711ZM133.18 197V185.625H136.898C138.133 185.625 139.06 185.88 139.68 186.391C140.305 186.901 140.617 187.656 140.617 188.656C140.617 189.188 140.466 189.659 140.164 190.07C139.862 190.477 139.451 190.792 138.93 191.016C139.544 191.188 140.029 191.516 140.383 192C140.742 192.479 140.922 193.052 140.922 193.719C140.922 194.74 140.591 195.542 139.93 196.125C139.268 196.708 138.333 197 137.125 197H133.18ZM134.68 191.68V195.773H137.156C137.854 195.773 138.404 195.594 138.805 195.234C139.211 194.87 139.414 194.37 139.414 193.734C139.414 192.365 138.669 191.68 137.18 191.68H134.68ZM134.68 190.477H136.945C137.602 190.477 138.125 190.312 138.516 189.984C138.911 189.656 139.109 189.211 139.109 188.648C139.109 188.023 138.927 187.57 138.562 187.289C138.198 187.003 137.643 186.859 136.898 186.859H134.68V190.477ZM142.539 192.695C142.539 191.867 142.701 191.122 143.023 190.461C143.352 189.799 143.805 189.289 144.383 188.93C144.966 188.57 145.63 188.391 146.375 188.391C147.526 188.391 148.456 188.789 149.164 189.586C149.878 190.383 150.234 191.443 150.234 192.766V192.867C150.234 193.69 150.076 194.43 149.758 195.086C149.445 195.737 148.995 196.245 148.406 196.609C147.823 196.974 147.151 197.156 146.391 197.156C145.245 197.156 144.315 196.758 143.602 195.961C142.893 195.164 142.539 194.109 142.539 192.797V192.695ZM143.992 192.867C143.992 193.805 144.208 194.557 144.641 195.125C145.078 195.693 145.661 195.977 146.391 195.977C147.125 195.977 147.708 195.69 148.141 195.117C148.573 194.539 148.789 193.732 148.789 192.695C148.789 191.768 148.568 191.018 148.125 190.445C147.688 189.867 147.104 189.578 146.375 189.578C145.661 189.578 145.086 189.862 144.648 190.43C144.211 190.997 143.992 191.81 143.992 192.867ZM156.133 189.844C155.914 189.807 155.677 189.789 155.422 189.789C154.474 189.789 153.831 190.193 153.492 191V197H152.047V188.547H153.453L153.477 189.523C153.951 188.768 154.622 188.391 155.492 188.391C155.773 188.391 155.987 188.427 156.133 188.5V189.844ZM156.961 192.703C156.961 191.406 157.268 190.365 157.883 189.578C158.497 188.786 159.302 188.391 160.297 188.391C161.286 188.391 162.07 188.729 162.648 189.406V185H164.094V197H162.766L162.695 196.094C162.117 196.802 161.312 197.156 160.281 197.156C159.302 197.156 158.503 196.755 157.883 195.953C157.268 195.151 156.961 194.104 156.961 192.812V192.703ZM158.406 192.867C158.406 193.826 158.604 194.576 159 195.117C159.396 195.659 159.943 195.93 160.641 195.93C161.557 195.93 162.227 195.518 162.648 194.695V190.812C162.216 190.016 161.552 189.617 160.656 189.617C159.948 189.617 159.396 189.891 159 190.438C158.604 190.984 158.406 191.794 158.406 192.867ZM169.852 197.156C168.706 197.156 167.773 196.781 167.055 196.031C166.336 195.276 165.977 194.268 165.977 193.008V192.742C165.977 191.904 166.135 191.156 166.453 190.5C166.776 189.839 167.224 189.323 167.797 188.953C168.375 188.578 169 188.391 169.672 188.391C170.771 188.391 171.625 188.753 172.234 189.477C172.844 190.201 173.148 191.237 173.148 192.586V193.188H167.422C167.443 194.021 167.685 194.695 168.148 195.211C168.617 195.721 169.211 195.977 169.93 195.977C170.44 195.977 170.872 195.872 171.227 195.664C171.581 195.456 171.891 195.18 172.156 194.836L173.039 195.523C172.331 196.612 171.268 197.156 169.852 197.156ZM169.672 189.578C169.089 189.578 168.599 189.792 168.203 190.219C167.807 190.641 167.562 191.234 167.469 192H171.703V191.891C171.661 191.156 171.464 190.589 171.109 190.188C170.755 189.781 170.276 189.578 169.672 189.578ZM178.914 189.844C178.695 189.807 178.458 189.789 178.203 189.789C177.255 189.789 176.612 190.193 176.273 191V197H174.828V188.547H176.234L176.258 189.523C176.732 188.768 177.404 188.391 178.273 188.391C178.555 188.391 178.768 188.427 178.914 188.5V189.844Z" fill="#6C67EF" fill-opacity="0.2"/>
<defs>
<filter id="filter0_i" x="80" y="0" width="200" height="60" filterUnits="userSpaceOnUse" color-interpolation-filters="sRGB">
<feFlood flood-opacity="0" result="BackgroundImageFix"/>
<feBlend mode="normal" in="SourceGraphic" in2="BackgroundImageFix" result="shape"/>
<feColorMatrix in="SourceAlpha" type="matrix" values="0 0 0 0 0 0 0 0 0 0 0 0 0 0 0 0 0 0 127 0" result="hardAlpha"/>
<feOffset dy="-4"/>
<feComposite in2="hardAlpha" operator="arithmetic" k2="-1" k3="1"/>
<feColorMatrix type="matrix" values="0 0 0 0 0.423529 0 0 0 0 0.403922 0 0 0 0 0.937255 0 0 0 1 0"/>
<feBlend mode="normal" in2="shape" result="effect1_innerShadow"/>
</filter>
<filter id="filter1_i" x="0" y="81" width="200" height="60" filterUnits="userSpaceOnUse" color-interpolation-filters="sRGB">
<feFlood flood-opacity="0" result="BackgroundImageFix"/>
<feBlend mode="normal" in="SourceGraphic" in2="BackgroundImageFix" result="shape"/>
<feColorMatrix in="SourceAlpha" type="matrix" values="0 0 0 0 0 0 0 0 0 0 0 0 0 0 0 0 0 0 127 0" result="hardAlpha"/>
<feOffset dy="4"/>
<feComposite in2="hardAlpha" operator="arithmetic" k2="-1" k3="1"/>
<feColorMatrix type="matrix" values="0 0 0 0 0.423529 0 0 0 0 0.403922 0 0 0 0 0.937255 0 0 0 1 0"/>
<feBlend mode="normal" in2="shape" result="effect1_innerShadow"/>
</filter>
<filter id="filter2_i" x="80" y="162" width="200" height="60" filterUnits="userSpaceOnUse" color-interpolation-filters="sRGB">
<feFlood flood-opacity="0" result="BackgroundImageFix"/>
<feBlend mode="normal" in="SourceGraphic" in2="BackgroundImageFix" result="shape"/>
<feColorMatrix in="SourceAlpha" type="matrix" values="0 0 0 0 0 0 0 0 0 0 0 0 0 0 0 0 0 0 127 0" result="hardAlpha"/>
<feOffset dx="3"/>
<feComposite in2="hardAlpha" operator="arithmetic" k2="-1" k3="1"/>
<feColorMatrix type="matrix" values="0 0 0 0 0.423529 0 0 0 0 0.403922 0 0 0 0 0.937255 0 0 0 1 0"/>
<feBlend mode="normal" in2="shape" result="effect1_innerShadow"/>
</filter>
</defs>
</svg>
