<svg width="440" height="440" viewBox="0 0 440 440" fill="none" xmlns="http://www.w3.org/2000/svg">
<rect x="0.189941" y="42.0013" width="400" height="400" rx="100" transform="rotate(-6 0.189941 42.0013)" fill="#4F48EC" fill-opacity="0.1"/>
<g clip-path="url(#clip0)">
<path d="M197.029 322.965C215.353 321.039 228.663 304.625 226.74 286.325L223.256 253.175L190.06 256.664C171.736 258.59 158.426 275.004 160.349 293.303C162.272 311.603 178.705 324.891 197.029 322.965Z" fill="#0ACF83"/>
<path d="M153.381 227.002C151.457 208.703 164.768 192.288 183.092 190.362L216.287 186.873L223.256 253.175L190.06 256.664C171.736 258.59 155.304 245.301 153.381 227.002Z" fill="#A259FF"/>
<path d="M146.413 160.7C144.489 142.401 157.8 125.987 176.124 124.061L209.32 120.572L216.288 186.873L183.093 190.362C164.769 192.288 148.336 179 146.413 160.7Z" fill="#F24E1E"/>
<path d="M209.319 120.572L242.514 117.083C260.838 115.157 277.271 128.445 279.194 146.745C281.117 165.044 267.807 181.458 249.483 183.384L216.287 186.873L209.319 120.572Z" fill="#FF7262"/>
<path d="M286.163 213.046C288.086 231.345 274.775 247.76 256.451 249.686C238.128 251.612 221.695 238.323 219.772 220.024C217.848 201.725 231.159 185.31 249.483 183.384C267.807 181.458 284.239 194.747 286.163 213.046Z" fill="#1ABCFE"/>
</g>
<defs>
<clipPath id="clip0">
<rect x="142.914" y="127.551" width="133.54" height="200" transform="rotate(-6 142.914 127.551)" fill="white"/>
</clipPath>
</defs>
</svg>
