<svg width="200" height="200" viewBox="0 0 200 200" fill="none" xmlns="http://www.w3.org/2000/svg">
<rect width="200" height="200" rx="100" fill="#4F48EC" fill-opacity="0.1"/>
<g clip-path="url(#clip0)">
<path d="M83.1956 150C92.408 150 99.8848 142.533 99.8848 133.333V116.667H83.1956C73.9831 116.667 66.5063 124.133 66.5063 133.333C66.5063 142.533 73.9831 150 83.1956 150Z" fill="#0ACF83"/>
<path d="M66.5063 99.9999C66.5063 90.7999 73.9831 83.3333 83.1956 83.3333H99.8848V116.667H83.1956C73.9831 116.667 66.5063 109.2 66.5063 99.9999Z" fill="#A259FF"/>
<path d="M66.5073 66.6667C66.5073 57.4667 73.9841 50 83.1965 50H99.8857V83.3333H83.1965C73.9841 83.3333 66.5073 75.8667 66.5073 66.6667Z" fill="#F24E1E"/>
<path d="M99.8848 50H116.574C125.786 50 133.263 57.4667 133.263 66.6667C133.263 75.8667 125.786 83.3333 116.574 83.3333H99.8848V50Z" fill="#FF7262"/>
<path d="M133.263 99.9999C133.263 109.2 125.786 116.667 116.574 116.667C107.362 116.667 99.8848 109.2 99.8848 99.9999C99.8848 90.7999 107.362 83.3333 116.574 83.3333C125.786 83.3333 133.263 90.7999 133.263 99.9999Z" fill="#1ABCFE"/>
</g>
<defs>
<clipPath id="clip0">
<rect x="66.5" y="50" width="66.7702" height="100" fill="white"/>
</clipPath>
</defs>
</svg>
