<svg width="200" height="200" viewBox="0 0 200 200" fill="none" xmlns="http://www.w3.org/2000/svg">
<rect width="200" height="200" rx="100" fill="#4F48EC" fill-opacity="0.1"/>
<path d="M140.935 50H59.0652C54.0586 50 50 54.0586 50 59.0652V140.935C50 145.941 54.0586 150 59.0652 150H140.935C145.941 150 150 145.941 150 140.935V59.0652C150 54.0586 145.941 50 140.935 50Z" fill="#DC395F"/>
<path d="M83.4199 81.463C86.7441 81.463 89.5289 78.8575 89.5289 75.4426C89.5289 72.0301 86.7441 69.425 83.4199 69.425C80.0957 69.425 77.3117 72.0301 77.3117 75.4426C77.3117 78.8571 80.0957 81.463 83.4199 81.463ZM70.7535 113.697C70.3945 115.225 70.2145 116.874 70.2145 118.219C70.2145 123.52 73.0891 127.04 79.198 127.04C84.2645 127.04 88.3719 124.031 91.3293 119.173L89.5234 126.42H99.584L105.334 103.358C106.771 97.5189 109.556 94.488 113.779 94.488C117.103 94.488 119.169 96.5552 119.169 99.9677C119.169 100.956 119.079 102.033 118.72 103.202L115.755 113.802C115.305 115.329 115.127 116.858 115.127 118.294C115.127 123.326 118.09 127.007 124.289 127.007C129.589 127.007 133.811 123.595 136.147 115.42L132.195 113.894C130.218 119.371 128.511 120.361 127.164 120.361C125.816 120.361 125.097 119.463 125.097 117.668C125.097 116.859 125.278 115.962 125.546 114.881L128.422 104.554C129.14 102.129 129.41 99.9786 129.41 98.0028C129.41 90.277 124.738 86.245 119.079 86.245C113.779 86.245 108.388 91.0259 105.694 96.0575L107.67 87.0263H92.3086L90.1523 94.981H97.3395L92.9137 112.7C89.4383 120.426 83.0543 120.551 82.2531 120.372C80.9375 120.075 80.0961 119.575 80.0961 117.866C80.0961 116.879 80.2758 115.463 80.725 113.754L87.4633 87.0263H70.3945L68.2383 94.981H75.3348L70.7539 113.697" fill="white"/>
</svg>
