<svg width="80" height="121" viewBox="0 0 80 121" fill="none" xmlns="http://www.w3.org/2000/svg">
<g clip-path="url(#clip0)">
<path d="M20.0711 120.255C31.0547 120.255 39.969 111.295 39.969 100.255V80.2554H20.0711C9.08738 80.2554 0.173096 89.2154 0.173096 100.255C0.173096 111.295 9.08738 120.255 20.0711 120.255Z" fill="#0ACF83"/>
<path d="M0.173096 60.2555C0.173096 49.2155 9.08738 40.2555 20.0711 40.2555H39.969V80.2555H20.0711C9.08738 80.2555 0.173096 71.2955 0.173096 60.2555Z" fill="#A259FF"/>
<path d="M0.173096 20.2554C0.173096 9.21537 9.08738 0.255371 20.0711 0.255371L39.969 0.255371V40.2554H20.0711C9.08738 40.2554 0.173096 31.2954 0.173096 20.2554Z" fill="#F24E1E"/>
<path d="M39.969 0.255371L59.867 0.255371C70.8506 0.255371 79.7649 9.21537 79.7649 20.2554C79.7649 31.2954 70.8506 40.2554 59.867 40.2554H39.969V0.255371Z" fill="#FF7262"/>
<path d="M79.7649 60.2555C79.7649 71.2955 70.8506 80.2555 59.867 80.2555C48.8833 80.2555 39.969 71.2955 39.969 60.2555C39.969 49.2155 48.8833 40.2555 59.867 40.2555C70.8506 40.2555 79.7649 49.2155 79.7649 60.2555Z" fill="#1ABCFE"/>
</g>
<defs>
<clipPath id="clip0">
<rect width="79.5918" height="120" fill="white" transform="translate(0.173096 0.255371)"/>
</clipPath>
</defs>
</svg>
