<svg width="200" height="200" viewBox="0 0 200 200" fill="none" xmlns="http://www.w3.org/2000/svg">
<rect width="200" height="200" rx="100" fill="#4F48EC" fill-opacity="0.1"/>
<g clip-path="url(#clip0)">
<path d="M50.0073 50.9999H149.994V149.32H50.0073V50.9999Z" fill="url(#paint0_linear)"/>
<path d="M57.9585 58.8186H142.042V141.501H57.9585V58.8186Z" fill="url(#paint1_linear)"/>
<path d="M74.1693 78.7111C74.1693 78.7111 80.4911 78.5448 85.695 78.5448C90.9537 78.5448 94.7032 79.782 97.2205 81.956C99.6265 84.0104 101.249 87.5126 101.249 91.4994C101.249 95.4861 100.018 98.7484 97.7794 101.042C94.8701 104.002 91.4799 105.754 85.695 105.996C84.0969 106.063 82.6178 106.079 82.6178 106.079V119.039H74.1689L74.1693 78.7111V78.7111ZM82.6175 98.8993C83.5353 98.9887 84.1106 98.9457 85.4711 98.9293C90.0031 98.875 92.7998 96.1191 92.7998 91.9513C92.7998 88.2071 90.4937 85.1329 86.143 84.9736C84.4089 84.9103 82.6175 84.9736 82.6175 84.9736V98.8993V98.8993Z" fill="url(#paint2_linear)"/>
<path d="M104.474 110.011C106.176 111.055 110.194 112.62 112.933 112.62C115.732 112.62 116.887 111.634 116.887 110.097C116.887 108.557 115.975 106.94 112.506 105.771C106.361 103.678 103.987 101.173 104.049 97.6669C104.049 92.004 108.794 87.7579 116.157 87.7579C119.625 87.7579 122.395 88.8918 124.219 89.8143V96.6107C122.879 95.8715 119.016 94.221 116.461 94.221C114.209 94.221 112.932 95.1443 112.932 96.6814C112.932 98.0972 114.089 98.8357 117.739 100.129C123.397 102.098 125.77 104.99 125.83 109.421C125.83 115.022 121.513 119.475 112.932 119.205C109.987 119.112 106.724 117.948 104.473 116.719L104.474 110.011V110.011Z" fill="url(#paint3_linear)"/>
</g>
<defs>
<linearGradient id="paint0_linear" x1="74.3057" y1="45.8652" x2="112.634" y2="126.855" gradientUnits="userSpaceOnUse">
<stop stop-color="#A0CBFF"/>
<stop offset="0.394" stop-color="#A0CBFE"/>
<stop offset="0.583" stop-color="#8EC2FC"/>
<stop offset="0.784" stop-color="#83BCFB"/>
<stop offset="1" stop-color="#7FBAFB"/>
</linearGradient>
<linearGradient id="paint1_linear" x1="87.9098" y1="59.9838" x2="109.573" y2="131.975" gradientUnits="userSpaceOnUse">
<stop stop-color="#090058"/>
<stop offset="1" stop-color="#070033"/>
</linearGradient>
<linearGradient id="paint2_linear" x1="62.3839" y1="50.175" x2="100.712" y2="131.163" gradientUnits="userSpaceOnUse">
<stop stop-color="#A0CBFF"/>
<stop offset="0.394" stop-color="#A0CBFE"/>
<stop offset="0.583" stop-color="#8EC2FC"/>
<stop offset="0.784" stop-color="#83BCFB"/>
<stop offset="1" stop-color="#7FBAFB"/>
</linearGradient>
<linearGradient id="paint3_linear" x1="84.2161" y1="39.6002" x2="122.696" y2="120.909" gradientUnits="userSpaceOnUse">
<stop stop-color="#A0CBFF"/>
<stop offset="0.394" stop-color="#A0CBFE"/>
<stop offset="0.583" stop-color="#8EC2FC"/>
<stop offset="0.784" stop-color="#83BCFB"/>
<stop offset="1" stop-color="#7FBAFB"/>
</linearGradient>
<clipPath id="clip0">
<rect x="50" y="51" width="100" height="98.32" fill="white"/>
</clipPath>
</defs>
</svg>
