<svg width="437" height="287" viewBox="0 0 437 287" fill="none" xmlns="http://www.w3.org/2000/svg">
<path d="M436.881 38.5H321.646V248.71H436.881V38.5Z" fill="#E6E6E6"/>
<path d="M332.41 237.946H426.118V49.2638H332.41V237.946Z" fill="#FFD362"/>
<path d="M395.784 89.7319H368.417V92.2734H395.784V89.7319Z" fill="white"/>
<path d="M416.115 98.5237H368.417V101.065H416.115V98.5237Z" fill="white"/>
<path d="M416.069 107.315H368.417V109.857H416.069V107.315Z" fill="white"/>
<path d="M362.745 89.7698H342.413V110.101H362.745V89.7698Z" fill="white"/>
<path d="M395.784 133.42H368.417V135.962H395.784V133.42Z" fill="white"/>
<path d="M416.115 142.212H368.417V144.753H416.115V142.212Z" fill="white"/>
<path d="M416.069 151.004H368.417V153.545H416.069V151.004Z" fill="white"/>
<path d="M362.745 133.458H342.413V153.79H362.745V133.458Z" fill="white"/>
<path d="M395.784 177.108H368.417V179.65H395.784V177.108Z" fill="white"/>
<path d="M416.115 185.9H368.417V188.441H416.115V185.9Z" fill="white"/>
<path d="M416.069 194.692H368.417V197.233H416.069V194.692Z" fill="white"/>
<path d="M362.745 177.146H342.413V197.478H362.745V177.146Z" fill="white"/>
<path d="M115.236 38.5H0V248.71H115.236V38.5Z" fill="#E6E6E6"/>
<path d="M10.7637 237.946H104.472V49.2638H10.7637V237.946Z" fill="#FFD362"/>
<path d="M74.1369 89.7319H46.7695V92.2734H74.1369V89.7319Z" fill="white"/>
<path d="M94.4685 98.5237H46.7695V101.065H94.4685V98.5237Z" fill="white"/>
<path d="M94.4218 107.315H46.7695V109.857H94.4218V107.315Z" fill="white"/>
<path d="M41.0987 89.7698H20.7671V110.101H41.0987V89.7698Z" fill="white"/>
<path d="M74.1369 133.42H46.7695V135.962H74.1369V133.42Z" fill="white"/>
<path d="M94.4685 142.212H46.7695V144.753H94.4685V142.212Z" fill="white"/>
<path d="M94.4218 151.004H46.7695V153.545H94.4218V151.004Z" fill="white"/>
<path d="M41.0987 133.458H20.7671V153.79H41.0987V133.458Z" fill="white"/>
<path d="M74.1369 177.108H46.7695V179.65H74.1369V177.108Z" fill="white"/>
<path d="M94.4685 185.9H46.7695V188.441H94.4685V185.9Z" fill="white"/>
<path d="M94.4218 194.692H46.7695V197.233H94.4218V194.692Z" fill="white"/>
<path d="M41.0987 177.146H20.7671V197.478H41.0987V177.146Z" fill="white"/>
<path d="M296.884 0H139.998V286.189H296.884V0Z" fill="#FFD362"/>
<path d="M146.777 278.908H290.105V7.28137H146.777V278.908Z" fill="white"/>
<path d="M240.931 69.7496H203.672V73.2097H240.931V69.7496Z" fill="#FFD362"/>
<path d="M268.611 81.7191H203.672V85.1792H268.611V81.7191Z" fill="#E6E6E6"/>
<path d="M268.548 93.6885H203.672V97.1485H268.548V93.6885Z" fill="#E6E6E6"/>
<path d="M195.95 69.801H168.27V97.4814H195.95V69.801Z" fill="#FFD362"/>
<path d="M240.931 129.229H203.672V132.689H240.931V129.229Z" fill="#FFD362"/>
<path d="M268.611 141.198H203.672V144.658H268.611V141.198Z" fill="#E6E6E6"/>
<path d="M268.548 153.168H203.672V156.628H268.548V153.168Z" fill="#E6E6E6"/>
<path d="M195.95 129.28H168.27V156.961H195.95V129.28Z" fill="#FFD362"/>
<path d="M240.931 188.708H203.672V192.168H240.931V188.708Z" fill="#FFD362"/>
<path d="M268.611 200.677H203.672V204.137H268.611V200.677Z" fill="#E6E6E6"/>
<path d="M268.548 212.647H203.672V216.107H268.548V212.647Z" fill="#E6E6E6"/>
<path d="M195.95 188.759H168.27V216.44H195.95V188.759Z" fill="#FFD362"/>
</svg>
