<svg width="251" height="241" viewBox="0 0 251 241" fill="none" xmlns="http://www.w3.org/2000/svg">
<mask id="path-1-outside-1" maskUnits="userSpaceOnUse" x="0" y="0" width="184" height="185" fill="black">
<rect fill="white" width="184" height="185"/>
<path fill-rule="evenodd" clip-rule="evenodd" d="M92.3545 12.2935C92.2803 11.9022 91.7198 11.9022 91.6456 12.2935C86.8021 37.8258 57.3686 50.0176 35.8897 35.3884C35.5604 35.1641 35.1641 35.5604 35.3884 35.8897C50.0176 57.3686 37.8258 86.8021 12.2935 91.6456C11.9022 91.7198 11.9022 92.2803 12.2935 92.3545C37.8258 97.198 50.0176 126.632 35.3884 148.11C35.1641 148.44 35.5604 148.836 35.8897 148.612C57.3686 133.983 86.8021 146.174 91.6456 171.707C91.7198 172.098 92.2803 172.098 92.3545 171.707C97.198 146.174 126.632 133.983 148.11 148.612C148.44 148.836 148.836 148.44 148.612 148.11C133.983 126.632 146.174 97.198 171.707 92.3545C172.098 92.2803 172.098 91.7198 171.707 91.6456C146.174 86.8021 133.983 57.3686 148.612 35.8897C148.836 35.5604 148.44 35.1641 148.11 35.3884C126.632 50.0176 97.198 37.8258 92.3545 12.2935ZM92 149.103C123.537 149.103 149.103 123.537 149.103 92C149.103 60.4632 123.537 34.8975 92 34.8975C60.4632 34.8975 34.8975 60.4632 34.8975 92C34.8975 123.537 60.4632 149.103 92 149.103Z"/>
</mask>
<path fill-rule="evenodd" clip-rule="evenodd" d="M92.3545 12.2935C92.2803 11.9022 91.7198 11.9022 91.6456 12.2935C86.8021 37.8258 57.3686 50.0176 35.8897 35.3884C35.5604 35.1641 35.1641 35.5604 35.3884 35.8897C50.0176 57.3686 37.8258 86.8021 12.2935 91.6456C11.9022 91.7198 11.9022 92.2803 12.2935 92.3545C37.8258 97.198 50.0176 126.632 35.3884 148.11C35.1641 148.44 35.5604 148.836 35.8897 148.612C57.3686 133.983 86.8021 146.174 91.6456 171.707C91.7198 172.098 92.2803 172.098 92.3545 171.707C97.198 146.174 126.632 133.983 148.11 148.612C148.44 148.836 148.836 148.44 148.612 148.11C133.983 126.632 146.174 97.198 171.707 92.3545C172.098 92.2803 172.098 91.7198 171.707 91.6456C146.174 86.8021 133.983 57.3686 148.612 35.8897C148.836 35.5604 148.44 35.1641 148.11 35.3884C126.632 50.0176 97.198 37.8258 92.3545 12.2935ZM92 149.103C123.537 149.103 149.103 123.537 149.103 92C149.103 60.4632 123.537 34.8975 92 34.8975C60.4632 34.8975 34.8975 60.4632 34.8975 92C34.8975 123.537 60.4632 149.103 92 149.103Z" fill="black"/>
<path d="M91.6456 12.2935L79.8559 10.057L79.8558 10.057L91.6456 12.2935ZM92.3545 12.2935L104.144 10.057L104.144 10.057L92.3545 12.2935ZM35.8897 35.3884L29.1345 45.3065L35.8897 35.3884ZM35.3884 35.8897L25.4703 42.6448L25.4703 42.6448L35.3884 35.8897ZM12.2935 91.6456L14.5299 103.435L14.5301 103.435L12.2935 91.6456ZM12.2935 92.3545L10.057 104.144L10.057 104.144L12.2935 92.3545ZM35.3884 148.11L25.4703 141.355L25.4702 141.355L35.3884 148.11ZM35.8897 148.612L42.6446 158.53L42.6448 158.53L35.8897 148.612ZM91.6456 171.707L79.8558 173.943L79.8559 173.943L91.6456 171.707ZM92.3545 171.707L104.144 173.943L104.144 173.943L92.3545 171.707ZM148.11 148.612L154.866 138.694L154.866 138.694L148.11 148.612ZM148.612 148.11L158.53 141.355L158.53 141.355L148.612 148.11ZM171.707 92.3545L173.943 104.144L173.943 104.144L171.707 92.3545ZM171.707 91.6456L169.47 103.435L169.47 103.435L171.707 91.6456ZM148.612 35.8897L138.694 29.1345L138.694 29.1345L148.612 35.8897ZM148.11 35.3884L154.866 45.3065L154.866 45.3064L148.11 35.3884ZM103.435 14.5301C101.04 27.1565 82.9601 27.1567 80.5648 14.5301L104.144 10.057C101.6 -3.35243 82.3997 -3.35221 79.8559 10.057L103.435 14.5301ZM29.1345 45.3065C57.7575 64.8014 96.9809 48.5546 103.435 14.5301L79.8558 10.057C76.6233 27.097 56.9797 35.2337 42.6448 25.4703L29.1345 45.3065ZM45.3065 29.1346C52.541 39.7566 39.7566 52.5411 29.1345 45.3065L42.6448 25.4703C31.3642 17.7872 17.7872 31.3643 25.4703 42.6448L45.3065 29.1346ZM14.5301 103.435C48.5546 96.9808 64.8014 57.7575 45.3065 29.1345L25.4703 42.6448C35.2337 56.9797 27.097 76.6233 10.057 79.8559L14.5301 103.435ZM14.5301 80.5648C27.1558 82.96 27.1575 101.04 14.5299 103.435L10.0572 79.8558C-3.35317 82.3996 -3.35154 101.601 10.057 104.144L14.5301 80.5648ZM45.3065 154.866C64.8014 126.243 48.5546 87.0193 14.5301 80.5648L10.057 104.144C27.097 107.377 35.2337 127.02 25.4703 141.355L45.3065 154.866ZM29.1348 138.693C39.7564 131.46 52.5411 144.243 45.3066 154.865L25.4702 141.355C17.7872 152.636 31.3645 166.212 42.6446 158.53L29.1348 138.693ZM103.435 169.47C96.9808 135.446 57.7575 119.199 29.1345 138.694L42.6448 158.53C56.9797 148.766 76.6233 156.903 79.8558 173.943L103.435 169.47ZM80.5648 169.47C82.9601 156.843 101.04 156.843 103.435 169.47L79.8559 173.943C82.3997 187.352 101.6 187.352 104.144 173.943L80.5648 169.47ZM154.866 138.694C126.243 119.199 87.0193 135.446 80.5648 169.47L104.144 173.943C107.377 156.903 127.02 148.766 141.355 158.53L154.866 138.694ZM138.694 154.865C131.46 144.245 144.242 131.458 154.866 138.694L141.355 158.53C152.637 166.214 166.212 152.635 158.53 141.355L138.694 154.865ZM169.47 80.5648C135.446 87.0193 119.199 126.243 138.694 154.866L158.53 141.355C148.766 127.02 156.903 107.377 173.943 104.144L169.47 80.5648ZM169.47 103.435C156.843 101.04 156.844 82.96 169.47 80.5648L173.943 104.144C187.352 101.601 187.353 82.3996 173.943 79.8558L169.47 103.435ZM138.694 29.1345C119.199 57.7575 135.446 96.9808 169.47 103.435L173.943 79.8559C156.903 76.6233 148.766 56.9797 158.53 42.6448L138.694 29.1345ZM154.866 45.3064C144.244 52.5411 131.459 39.7566 138.694 29.1345L158.53 42.6449C166.213 31.3642 152.636 17.7872 141.355 25.4703L154.866 45.3064ZM80.5648 14.5301C87.0193 48.5546 126.243 64.8014 154.866 45.3065L141.355 25.4703C127.02 35.2337 107.377 27.097 104.144 10.057L80.5648 14.5301ZM137.103 92C137.103 116.909 116.909 137.103 92 137.103V161.103C130.164 161.103 161.103 130.164 161.103 92H137.103ZM92 46.8975C116.909 46.8975 137.103 67.0906 137.103 92H161.103C161.103 53.8358 130.164 22.8975 92 22.8975V46.8975ZM46.8975 92C46.8975 67.0906 67.0906 46.8975 92 46.8975V22.8975C53.8358 22.8975 22.8975 53.8358 22.8975 92H46.8975ZM92 137.103C67.0906 137.103 46.8975 116.909 46.8975 92H22.8975C22.8975 130.164 53.8358 161.103 92 161.103V137.103Z" fill="black" mask="url(#path-1-outside-1)"/>
<mask id="path-3-outside-2" maskUnits="userSpaceOnUse" x="123" y="113" width="128" height="128" fill="black">
<rect fill="white" x="123" y="113" width="128" height="128"/>
<path fill-rule="evenodd" clip-rule="evenodd" d="M187.23 125.191C187.182 124.936 186.818 124.936 186.77 125.191C183.621 141.787 164.49 149.711 150.528 140.202C150.314 140.057 150.057 140.314 150.202 140.528C159.711 154.49 151.787 173.621 135.191 176.77C134.936 176.818 134.936 177.182 135.191 177.23C151.787 180.379 159.711 199.51 150.202 213.472C150.057 213.686 150.314 213.943 150.528 213.798C164.49 204.289 183.621 212.213 186.77 228.809C186.818 229.064 187.182 229.064 187.23 228.809C190.379 212.213 209.51 204.289 223.472 213.798C223.686 213.943 223.943 213.686 223.798 213.472C214.289 199.51 222.213 180.379 238.809 177.23C239.064 177.182 239.064 176.818 238.809 176.77C222.213 173.621 214.289 154.49 223.798 140.528C223.943 140.314 223.686 140.057 223.472 140.202C209.51 149.711 190.379 141.787 187.23 125.191ZM187 214.117C207.499 214.117 224.117 197.499 224.117 177C224.117 156.501 207.499 139.883 187 139.883C166.501 139.883 149.883 156.501 149.883 177C149.883 197.499 166.501 214.117 187 214.117Z"/>
</mask>
<path fill-rule="evenodd" clip-rule="evenodd" d="M187.23 125.191C187.182 124.936 186.818 124.936 186.77 125.191C183.621 141.787 164.49 149.711 150.528 140.202C150.314 140.057 150.057 140.314 150.202 140.528C159.711 154.49 151.787 173.621 135.191 176.77C134.936 176.818 134.936 177.182 135.191 177.23C151.787 180.379 159.711 199.51 150.202 213.472C150.057 213.686 150.314 213.943 150.528 213.798C164.49 204.289 183.621 212.213 186.77 228.809C186.818 229.064 187.182 229.064 187.23 228.809C190.379 212.213 209.51 204.289 223.472 213.798C223.686 213.943 223.943 213.686 223.798 213.472C214.289 199.51 222.213 180.379 238.809 177.23C239.064 177.182 239.064 176.818 238.809 176.77C222.213 173.621 214.289 154.49 223.798 140.528C223.943 140.314 223.686 140.057 223.472 140.202C209.51 149.711 190.379 141.787 187.23 125.191ZM187 214.117C207.499 214.117 224.117 197.499 224.117 177C224.117 156.501 207.499 139.883 187 139.883C166.501 139.883 149.883 156.501 149.883 177C149.883 197.499 166.501 214.117 187 214.117Z" fill="#6C67EF"/>
<path d="M186.77 125.191L198.559 127.427L198.559 127.427L186.77 125.191ZM187.23 125.191L175.441 127.427L175.441 127.427L187.23 125.191ZM150.528 140.202L143.773 150.121L143.773 150.121L150.528 140.202ZM150.202 140.528L160.121 133.773L160.121 133.773L150.202 140.528ZM135.191 176.77L137.427 188.559L137.427 188.559L135.191 176.77ZM135.191 177.23L137.427 165.441L137.427 165.441L135.191 177.23ZM150.202 213.472L140.284 206.717L140.284 206.717L150.202 213.472ZM150.528 213.798L143.773 203.88L143.773 203.88L150.528 213.798ZM186.77 228.809L198.559 226.573L198.559 226.573L186.77 228.809ZM187.23 228.809L199.02 231.046L199.02 231.046L187.23 228.809ZM223.472 213.798L230.227 203.88L230.227 203.88L223.472 213.798ZM223.798 213.472L233.716 206.717L233.716 206.717L223.798 213.472ZM238.809 177.23L236.573 165.441L236.573 165.441L238.809 177.23ZM238.809 176.77L236.573 188.559L236.573 188.559L238.809 176.77ZM223.798 140.528L233.716 147.283L233.716 147.283L223.798 140.528ZM223.472 140.202L230.227 150.121L230.227 150.12L223.472 140.202ZM198.559 127.427C196.138 140.19 177.862 140.191 175.441 127.427L199.02 122.954C196.502 109.681 177.498 109.682 174.98 122.954L198.559 127.427ZM143.773 150.121C164.878 164.495 193.8 152.516 198.559 127.427L174.98 122.954C173.443 131.058 164.101 134.928 157.283 130.284L143.773 150.121ZM160.121 133.773C167.433 144.51 154.511 157.434 143.773 150.121L157.283 130.284C146.118 122.68 132.68 136.118 140.284 147.283L160.121 133.773ZM137.427 188.559C162.516 183.8 174.495 154.878 160.121 133.773L140.284 147.283C144.928 154.101 141.058 163.443 132.954 164.98L137.427 188.559ZM137.427 165.441C150.19 167.862 150.191 186.138 137.427 188.559L132.954 164.98C119.681 167.498 119.682 186.503 132.954 189.02L137.427 165.441ZM160.121 220.227C174.495 199.122 162.516 170.2 137.427 165.441L132.954 189.02C141.058 190.557 144.928 199.899 140.284 206.717L160.121 220.227ZM143.773 203.88C154.511 196.566 167.433 209.49 160.121 220.227L140.284 206.717C132.68 217.881 146.118 231.321 157.283 223.716L143.773 203.88ZM198.559 226.573C193.8 201.485 164.878 189.505 143.773 203.88L157.283 223.716C164.101 219.073 173.443 222.942 174.98 231.046L198.559 226.573ZM175.441 226.573C177.862 213.81 196.138 213.808 198.559 226.573L174.98 231.046C177.498 244.319 196.503 244.317 199.02 231.046L175.441 226.573ZM230.227 203.88C209.122 189.505 180.2 201.485 175.441 226.573L199.02 231.046C200.557 222.942 209.899 219.073 216.717 223.716L230.227 203.88ZM213.88 220.227C206.566 209.49 219.49 196.566 230.227 203.88L216.716 223.716C227.882 231.321 241.32 217.882 233.716 206.717L213.88 220.227ZM236.573 165.441C211.485 170.2 199.505 199.122 213.88 220.227L233.716 206.717C229.073 199.899 232.942 190.557 241.046 189.02L236.573 165.441ZM236.573 188.559C223.809 186.138 223.809 167.862 236.573 165.441L241.046 189.02C254.318 186.502 254.318 167.498 241.046 164.98L236.573 188.559ZM213.88 133.773C199.505 154.878 211.485 183.8 236.573 188.559L241.046 164.98C232.942 163.443 229.073 154.101 233.716 147.283L213.88 133.773ZM230.227 150.12C219.489 157.434 206.567 144.51 213.879 133.773L233.716 147.283C241.319 136.119 227.883 122.679 216.717 130.284L230.227 150.12ZM175.441 127.427C180.2 152.516 209.122 164.495 230.227 150.121L216.717 130.284C209.899 134.928 200.557 131.058 199.02 122.954L175.441 127.427ZM212.117 177C212.117 190.872 200.872 202.117 187 202.117V226.117C214.126 226.117 236.117 204.126 236.117 177H212.117ZM187 151.883C200.872 151.883 212.117 163.128 212.117 177H236.117C236.117 149.874 214.126 127.883 187 127.883V151.883ZM161.883 177C161.883 163.128 173.129 151.883 187 151.883V127.883C159.874 127.883 137.883 149.874 137.883 177H161.883ZM187 202.117C173.129 202.117 161.883 190.871 161.883 177H137.883C137.883 204.126 159.874 226.117 187 226.117V202.117Z" fill="#6C67EF" mask="url(#path-3-outside-2)"/>
</svg>
