<svg width="318" height="395" viewBox="0 0 318 395" fill="none" xmlns="http://www.w3.org/2000/svg">
<rect x="19.3955" y="114.267" width="280" height="226" rx="11" fill="#FFD362"/>
<path d="M317.092 394.75H0.830084C0.609932 394.75 0.398796 394.663 0.243125 394.508C0.0874544 394.352 0 394.141 0 393.921C0 393.701 0.0874544 393.49 0.243125 393.335C0.398796 393.179 0.609932 393.092 0.830084 393.092H317.092C317.312 393.092 317.523 393.179 317.679 393.335C317.835 393.49 317.922 393.701 317.922 393.921C317.922 394.141 317.835 394.352 317.679 394.508C317.523 394.663 317.312 394.75 317.092 394.75Z" fill="white"/>
<path d="M159.528 318.75H58.9697C56.2323 318.747 53.6079 317.659 51.6722 315.725C49.7366 313.792 48.6477 311.17 48.6445 308.435V146.847C48.6477 144.112 49.7366 141.49 51.6722 139.556C53.6079 137.622 56.2323 136.534 58.9697 136.531H159.528V318.75ZM58.9697 138.19C56.6724 138.192 54.47 139.105 52.8455 140.728C51.2211 142.351 50.3073 144.551 50.3047 146.847V308.435C50.3073 310.73 51.2211 312.93 52.8455 314.553C54.47 316.176 56.6724 317.089 58.9697 317.092H157.868V138.19H58.9697Z" fill="white"/>
<path d="M156.928 136.531H257.487C260.224 136.534 262.849 137.622 264.784 139.556C266.72 141.49 267.809 144.112 267.812 146.847V308.435C267.809 311.17 266.72 313.792 264.784 315.725C262.849 317.659 260.224 318.747 257.487 318.75H156.928V136.531Z" fill="white"/>
<path d="M84.6177 94.6849H83.4827V147.414H84.6177V94.6849Z" fill="white"/>
<path d="M84.3898 95.8189C82.0327 95.8189 79.7286 95.1206 77.7688 93.8123C75.8089 92.504 74.2814 90.6444 73.3794 88.4688C72.4773 86.2932 72.2413 83.8992 72.7012 81.5895C73.161 79.2799 74.2961 77.1583 75.9628 75.4932C77.6295 73.828 79.753 72.6941 82.0648 72.2346C84.3766 71.7752 86.7729 72.011 88.9505 72.9122C91.1282 73.8134 92.9895 75.3395 94.299 77.2975C95.6085 79.2555 96.3074 81.5575 96.3074 83.9124C96.3074 87.0702 95.0519 90.0986 92.8169 92.3315C90.5819 94.5644 87.5506 95.8189 84.3898 95.8189ZM84.3898 73.1398C82.2572 73.1398 80.1725 73.7716 78.3993 74.9553C76.6261 76.139 75.2441 77.8215 74.428 79.7899C73.6118 81.7583 73.3983 83.9243 73.8144 86.014C74.2304 88.1037 75.2574 90.0231 76.7654 91.5297C78.2733 93.0363 80.1946 94.0623 82.2862 94.4779C84.3779 94.8936 86.5459 94.6802 88.5161 93.8649C90.4864 93.0496 92.1704 91.6688 93.3552 89.8973C94.54 88.1257 95.1725 86.043 95.1725 83.9124C95.1725 81.0553 94.0364 78.3153 92.0143 76.295C89.9922 74.2748 87.2496 73.1398 84.3898 73.1398V73.1398Z" fill="white"/>
<path d="M200.745 23.813H199.61V145.713H200.745V23.813Z" fill="white"/>
<path d="M200.517 23.813C198.16 23.813 195.856 23.1147 193.896 21.8064C191.936 20.4981 190.408 18.6385 189.506 16.4629C188.604 14.2873 188.368 11.8933 188.828 9.58365C189.288 7.27402 190.423 5.15249 192.09 3.48734C193.757 1.82219 195.88 0.6882 198.192 0.228786C200.504 -0.230629 202.9 0.00515739 205.078 0.906331C207.255 1.8075 209.117 3.33359 210.426 5.2916C211.736 7.24962 212.435 9.55162 212.435 11.9065C212.435 15.0643 211.179 18.0928 208.944 20.3257C206.709 22.5586 203.678 23.813 200.517 23.813V23.813ZM200.517 1.13397C198.384 1.13397 196.3 1.76576 194.526 2.94946C192.753 4.13316 191.371 5.81561 190.555 7.78403C189.739 9.75246 189.525 11.9184 189.941 14.0081C190.357 16.0978 191.384 18.0173 192.892 19.5238C194.4 21.0304 196.322 22.0564 198.413 22.472C200.505 22.8877 202.673 22.6744 204.643 21.859C206.614 21.0437 208.298 19.6629 209.482 17.8914C210.667 16.1199 211.3 14.0371 211.3 11.9065C211.3 9.04945 210.164 6.30941 208.141 4.28917C206.119 2.26893 203.377 1.13397 200.517 1.13397V1.13397Z" fill="white"/>
<path d="M158.283 266.257C148.258 266.257 138.643 262.278 131.554 255.196C124.465 248.113 120.482 238.507 120.482 228.491C120.482 218.475 124.465 208.869 131.554 201.787C138.643 194.704 148.258 190.725 158.283 190.725V266.257Z" fill="#6C67EF"/>
<path d="M158.283 190.725C168.309 190.725 177.924 194.704 185.013 201.787C192.102 208.869 196.085 218.475 196.085 228.491C196.085 238.507 192.102 248.113 185.013 255.196C177.924 262.278 168.309 266.257 158.283 266.257V190.725Z" fill="#FFD362"/>
<path d="M289.377 340.016H28.3245C25.7667 340.013 23.3144 338.997 21.5058 337.19C19.6971 335.383 18.6798 332.933 18.6769 330.377V124.337C18.6798 121.781 19.6971 119.331 21.5058 117.525C23.3144 115.718 25.7667 114.701 28.3245 114.698H289.377C291.935 114.701 294.387 115.718 296.196 117.525C298.005 119.331 299.022 121.781 299.025 124.337V330.377C299.022 332.933 298.005 335.383 296.196 337.19C294.387 338.997 291.935 340.013 289.377 340.016V340.016ZM28.3245 115.832C26.0676 115.835 23.9039 116.732 22.308 118.326C20.7121 119.92 19.8144 122.082 19.8119 124.337V330.377C19.8144 332.632 20.7121 334.794 22.308 336.388C23.9039 337.983 26.0676 338.88 28.3245 338.882H289.377C291.634 338.88 293.798 337.983 295.394 336.388C296.99 334.794 297.887 332.632 297.89 330.377V124.337C297.887 122.082 296.99 119.92 295.394 118.326C293.798 116.732 291.634 115.835 289.377 115.832H28.3245Z" fill="#FFD362"/>
<path d="M141.894 61.3688H140.759V206.295H141.894V61.3688Z" fill="white"/>
<path d="M141.666 61.8173C139.309 61.8173 137.004 61.119 135.045 59.8107C133.085 58.5024 131.557 56.6428 130.655 54.4672C129.753 52.2916 129.517 49.8976 129.977 47.5879C130.437 45.2783 131.572 43.1568 133.239 41.4916C134.905 39.8265 137.029 38.6925 139.341 38.2331C141.652 37.7736 144.049 38.0094 146.226 38.9106C148.404 39.8118 150.265 41.3379 151.575 43.2959C152.884 45.2539 153.583 47.5559 153.583 49.9108C153.583 53.0686 152.328 56.097 150.093 58.3299C147.858 60.5628 144.826 61.8173 141.666 61.8173V61.8173ZM141.666 39.1382C139.533 39.1382 137.448 39.77 135.675 40.9537C133.902 42.1374 132.52 43.8199 131.704 45.7883C130.888 47.7567 130.674 49.9227 131.09 52.0124C131.506 54.1021 132.533 56.0215 134.041 57.5281C135.549 59.0347 137.471 60.0607 139.562 60.4763C141.654 60.892 143.822 60.6787 145.792 59.8633C147.762 59.048 149.446 57.6672 150.631 55.8957C151.816 54.1242 152.448 52.0414 152.448 49.9108C152.448 47.0537 151.312 44.3137 149.29 42.2935C147.268 40.2732 144.525 39.1382 141.666 39.1382Z" fill="white"/>
<path d="M67.6518 309.332C71.7778 309.332 75.1225 305.99 75.1225 301.868C75.1225 297.746 71.7778 294.404 67.6518 294.404C63.5258 294.404 60.181 297.746 60.181 301.868C60.181 305.99 63.5258 309.332 67.6518 309.332Z" fill="white"/>
<path d="M251.1 309.332C255.226 309.332 258.571 305.99 258.571 301.868C258.571 297.746 255.226 294.404 251.1 294.404C246.974 294.404 243.63 297.746 243.63 301.868C243.63 305.99 246.974 309.332 251.1 309.332Z" fill="#FFD362"/>
<path d="M67.6518 160.886C71.7778 160.886 75.1225 157.544 75.1225 153.422C75.1225 149.3 71.7778 145.958 67.6518 145.958C63.5258 145.958 60.181 149.3 60.181 153.422C60.181 157.544 63.5258 160.886 67.6518 160.886Z" fill="white"/>
<path d="M251.1 160.886C255.226 160.886 258.571 157.544 258.571 153.422C258.571 149.3 255.226 145.958 251.1 145.958C246.974 145.958 243.63 149.3 243.63 153.422C243.63 157.544 246.974 160.886 251.1 160.886Z" fill="#FFD362"/>
<path d="M80.9849 99.2208C87.2534 99.2208 92.335 94.1439 92.335 87.8813C92.335 81.6186 87.2534 76.5417 80.9849 76.5417C74.7164 76.5417 69.6348 81.6186 69.6348 87.8813C69.6348 94.1439 74.7164 99.2208 80.9849 99.2208Z" fill="#F2F2F2"/>
<path d="M197.112 27.2148C203.38 27.2148 208.462 22.1379 208.462 15.8753C208.462 9.61264 203.38 4.53577 197.112 4.53577C190.843 4.53577 185.762 9.61264 185.762 15.8753C185.762 22.1379 190.843 27.2148 197.112 27.2148Z" fill="white"/>
<path d="M138.261 65.2192C144.529 65.2192 149.611 60.1423 149.611 53.8797C149.611 47.617 144.529 42.5402 138.261 42.5402C131.992 42.5402 126.911 47.617 126.911 53.8797C126.911 60.1423 131.992 65.2192 138.261 65.2192Z" fill="#FFD362"/>
</svg>
