<svg width="1920" height="400" viewBox="0 0 1920 400" fill="none" xmlns="http://www.w3.org/2000/svg">
<rect x="0.000244141" width="1920" height="400" fill="#6C67EF"/>
<rect x="1850.91" y="359.978" width="13.2631" height="13.2631" transform="rotate(-180 1850.91 359.978)" fill="#FFBF18"/>
<rect x="1407.26" y="54.2631" width="13.2631" height="13.2631" transform="rotate(-180 1407.26 54.2631)" fill="#FFBF18"/>
<rect x="1636.05" y="200.82" width="13.2631" height="13.2631" transform="rotate(-180 1636.05 200.82)" fill="#FFBF18"/>
<rect x="1690.43" y="359.978" width="13.2631" height="13.2631" transform="rotate(-180 1690.43 359.978)" fill="#100E34"/>
<rect x="1799.19" y="217.399" width="13.2631" height="13.2631" transform="rotate(-180 1799.19 217.399)" fill="#100E34"/>
<rect x="1584.33" y="64.8735" width="13.2631" height="13.2631" transform="rotate(-180 1584.33 64.8735)" fill="#100E34"/>
<rect x="1529.95" y="359.978" width="13.2631" height="13.2631" transform="rotate(-180 1529.95 359.978)" fill="#4F48EC"/>
<rect x="1787.25" y="74.8209" width="13.2631" height="13.2631" transform="rotate(-180 1787.25 74.8209)" fill="#4F48EC"/>
<rect x="1406.91" y="359.978" width="13.2631" height="13.2631" transform="rotate(-180 1406.91 359.978)" fill="#FFBF18"/>
<rect x="963.263" y="54.2631" width="13.2631" height="13.2631" transform="rotate(-180 963.263 54.2631)" fill="#FFBF18"/>
<rect x="1192.05" y="200.82" width="13.2631" height="13.2631" transform="rotate(-180 1192.05 200.82)" fill="#FFBF18"/>
<rect x="1246.43" y="359.978" width="13.2631" height="13.2631" transform="rotate(-180 1246.43 359.978)" fill="#100E34"/>
<rect x="1355.19" y="217.399" width="13.2631" height="13.2631" transform="rotate(-180 1355.19 217.399)" fill="#100E34"/>
<rect x="1140.33" y="64.8735" width="13.2631" height="13.2631" transform="rotate(-180 1140.33 64.8735)" fill="#100E34"/>
<rect x="1085.95" y="359.978" width="13.2631" height="13.2631" transform="rotate(-180 1085.95 359.978)" fill="#4F48EC"/>
<rect x="1343.25" y="74.8209" width="13.2631" height="13.2631" transform="rotate(-180 1343.25 74.8209)" fill="#4F48EC"/>
<rect x="962.914" y="359.978" width="13.2631" height="13.2631" transform="rotate(-180 962.914 359.978)" fill="#FFBF18"/>
<rect x="519.263" y="54.2631" width="13.2631" height="13.2631" transform="rotate(-180 519.263 54.2631)" fill="#FFBF18"/>
<rect x="748.052" y="200.82" width="13.2631" height="13.2631" transform="rotate(-180 748.052 200.82)" fill="#FFBF18"/>
<rect x="802.431" y="359.978" width="13.2631" height="13.2631" transform="rotate(-180 802.431 359.978)" fill="#100E34"/>
<rect x="911.188" y="217.399" width="13.2631" height="13.2631" transform="rotate(-180 911.188 217.399)" fill="#100E34"/>
<rect x="696.326" y="64.8735" width="13.2631" height="13.2631" transform="rotate(-180 696.326 64.8735)" fill="#100E34"/>
<rect x="641.947" y="359.978" width="13.2631" height="13.2631" transform="rotate(-180 641.947 359.978)" fill="#4F48EC"/>
<rect x="899.251" y="74.8209" width="13.2631" height="13.2631" transform="rotate(-180 899.251 74.8209)" fill="#4F48EC"/>
<rect x="518.914" y="359.978" width="13.2631" height="13.2631" transform="rotate(-180 518.914 359.978)" fill="#FFBF18"/>
<rect x="75.2632" y="54.2631" width="13.2631" height="13.2631" transform="rotate(-180 75.2632 54.2631)" fill="#FFBF18"/>
<rect x="304.052" y="200.82" width="13.2631" height="13.2631" transform="rotate(-180 304.052 200.82)" fill="#FFBF18"/>
<rect x="358.431" y="359.978" width="13.2631" height="13.2631" transform="rotate(-180 358.431 359.978)" fill="#100E34"/>
<rect x="467.188" y="217.399" width="13.2631" height="13.2631" transform="rotate(-180 467.188 217.399)" fill="#100E34"/>
<rect x="252.326" y="64.8735" width="13.2631" height="13.2631" transform="rotate(-180 252.326 64.8735)" fill="#100E34"/>
<rect x="197.947" y="359.978" width="13.2631" height="13.2631" transform="rotate(-180 197.947 359.978)" fill="#4F48EC"/>
<rect x="455.251" y="74.8209" width="13.2631" height="13.2631" transform="rotate(-180 455.251 74.8209)" fill="#4F48EC"/>
<rect x="11.9998" y="41.0001" width="13.2631" height="13.2631" fill="#FFBF18"/>
<rect x="455.651" y="346.715" width="13.2631" height="13.2631" fill="#FFBF18"/>
<rect x="226.862" y="200.157" width="13.2631" height="13.2631" fill="#FFBF18"/>
<rect x="172.483" y="41.0001" width="13.2631" height="13.2631" fill="#100E34"/>
<rect x="63.7258" y="183.579" width="13.2631" height="13.2631" fill="#100E34"/>
<rect x="278.588" y="336.104" width="13.2631" height="13.2631" fill="#100E34"/>
<rect x="332.967" y="41" width="13.2631" height="13.2631" fill="#4F48EC"/>
<rect x="75.6626" y="326.157" width="13.2631" height="13.2631" fill="#4F48EC"/>
</svg>
