<svg width="383" height="251" viewBox="0 0 383 251" fill="none" xmlns="http://www.w3.org/2000/svg">
<path d="M80.9225 0.000155923C70.5169 -0.0233028 60.2065 2.60048 50.5621 7.72628C50.1738 7.93511 49.7839 8.14493 49.3942 8.35951C34.7371 16.4749 22.2316 30.0859 13.4449 47.4869C4.65816 64.8878 -0.0188269 85.3045 5.69588e-05 106.178V222.037C0.00110791 223.261 0.372021 224.434 1.03142 225.299C1.69083 226.165 2.58487 226.651 3.5174 226.653L3.58725 226.661C71.3809 242.814 137.288 251 199.532 251C200.465 251 201.397 250.998 202.328 250.995C263.512 250.75 323.088 242.565 379.401 226.664L379.483 226.653C380.415 226.651 381.309 226.165 381.969 225.299C382.628 224.434 382.999 223.261 383 222.037V4.61528C382.999 3.39171 382.628 2.21863 381.969 1.35343C381.309 0.488232 380.415 0.00156481 379.483 0.000187221L80.9225 0.000155923Z" fill="#FFD362"/>
<path d="M291.776 55.2199C291.165 55.2277 290.583 55.4232 290.155 55.764C289.727 56.1049 289.487 56.5639 289.487 57.042C289.487 57.5201 289.727 57.9791 290.155 58.32C290.583 58.6608 291.165 58.8563 291.776 58.8641H350.102C350.407 58.8683 350.711 58.8253 350.995 58.7375C351.28 58.6497 351.539 58.5188 351.759 58.3523C351.979 58.1859 352.155 57.9871 352.277 57.7674C352.398 57.5477 352.464 57.3114 352.469 57.0719C352.474 56.8325 352.418 56.5946 352.306 56.3719C352.193 56.1492 352.026 55.946 351.813 55.774C351.601 55.602 351.347 55.4645 351.066 55.3694C350.785 55.2743 350.484 55.2235 350.178 55.2199C350.153 55.2195 350.127 55.2195 350.102 55.2199H291.776Z" fill="#3F3D56"/>
<path d="M363.328 54.7126C363.285 54.7459 363.251 54.7854 363.228 54.8289C363.205 54.8724 363.194 54.919 363.194 54.9661C363.194 55.0132 363.205 55.0598 363.228 55.1033C363.251 55.1468 363.285 55.1864 363.328 55.2197L365.293 56.7589H360.447C360.326 56.7589 360.209 56.7967 360.123 56.8639C360.038 56.9312 359.989 57.0224 359.989 57.1175C359.989 57.2126 360.038 57.3038 360.123 57.371C360.209 57.4382 360.326 57.476 360.447 57.476H365.293L363.328 59.0153C363.285 59.0486 363.251 59.0881 363.228 59.1316C363.205 59.1751 363.194 59.2217 363.194 59.2688C363.194 59.3159 363.205 59.3625 363.228 59.406C363.251 59.4495 363.285 59.489 363.328 59.5223C363.37 59.5556 363.421 59.5821 363.476 59.6001C363.532 59.6181 363.591 59.6274 363.651 59.6274C363.711 59.6274 363.771 59.6181 363.826 59.6001C363.882 59.5821 363.932 59.5556 363.975 59.5224L366.721 57.371C366.807 57.3038 366.856 57.2126 366.856 57.1175C366.856 57.0224 366.807 56.9312 366.721 56.8639L363.975 54.7126C363.932 54.6793 363.882 54.6529 363.826 54.6348C363.771 54.6168 363.711 54.6075 363.651 54.6075C363.591 54.6075 363.532 54.6168 363.476 54.6348C363.421 54.6529 363.37 54.6793 363.328 54.7126Z" fill="white"/>
<path d="M278.524 54.7126C278.567 54.7459 278.6 54.7854 278.623 54.8289C278.646 54.8724 278.658 54.919 278.658 54.9661C278.658 55.0132 278.646 55.0598 278.623 55.1033C278.6 55.1468 278.567 55.1864 278.524 55.2197L276.559 56.7589H281.405C281.465 56.7588 281.525 56.7679 281.58 56.7859C281.636 56.8039 281.687 56.8302 281.729 56.8636C281.772 56.8969 281.806 56.9364 281.829 56.98C281.852 57.0236 281.864 57.0703 281.864 57.1175C281.864 57.1646 281.852 57.2113 281.829 57.2549C281.806 57.2985 281.772 57.3381 281.729 57.3714C281.687 57.4047 281.636 57.4311 281.58 57.449C281.525 57.467 281.465 57.4762 281.405 57.476H276.559L278.524 59.0153C278.61 59.0825 278.658 59.1737 278.658 59.2688C278.658 59.3639 278.61 59.4551 278.524 59.5223C278.438 59.5896 278.322 59.6274 278.2 59.6274C278.079 59.6274 277.963 59.5896 277.877 59.5224L275.13 57.371C275.044 57.3038 274.996 57.2126 274.996 57.1175C274.996 57.0224 275.044 56.9312 275.13 56.8639L277.877 54.7126C277.919 54.6793 277.97 54.6529 278.025 54.6348C278.081 54.6168 278.14 54.6075 278.2 54.6075C278.26 54.6075 278.32 54.6168 278.376 54.6348C278.431 54.6529 278.482 54.6793 278.524 54.7126V54.7126Z" fill="white"/>
<g opacity="0.4">
<path opacity="0.4" d="M294.131 17.4005C295.511 17.4005 296.631 16.5238 296.631 15.4423C296.631 14.3608 295.511 13.4841 294.131 13.4841C292.75 13.4841 291.631 14.3608 291.631 15.4423C291.631 16.5238 292.75 17.4005 294.131 17.4005Z" fill="white"/>
<path opacity="0.4" d="M304.547 17.4005C305.928 17.4005 307.047 16.5238 307.047 15.4423C307.047 14.3608 305.928 13.4841 304.547 13.4841C303.167 13.4841 302.047 14.3608 302.047 15.4423C302.047 16.5238 303.167 17.4005 304.547 17.4005Z" fill="white"/>
<path opacity="0.4" d="M314.963 17.4005C316.344 17.4005 317.463 16.5238 317.463 15.4423C317.463 14.3608 316.344 13.4841 314.963 13.4841C313.583 13.4841 312.463 14.3608 312.463 15.4423C312.463 16.5238 313.583 17.4005 314.963 17.4005Z" fill="white"/>
<path opacity="0.4" d="M325.379 17.4005C326.76 17.4005 327.879 16.5238 327.879 15.4423C327.879 14.3608 326.76 13.4841 325.379 13.4841C323.999 13.4841 322.879 14.3608 322.879 15.4423C322.879 16.5238 323.999 17.4005 325.379 17.4005Z" fill="white"/>
<path opacity="0.4" d="M335.796 17.4005C337.176 17.4005 338.296 16.5238 338.296 15.4423C338.296 14.3608 337.176 13.4841 335.796 13.4841C334.415 13.4841 333.296 14.3608 333.296 15.4423C333.296 16.5238 334.415 17.4005 335.796 17.4005Z" fill="white"/>
<path opacity="0.4" d="M346.212 17.4005C347.592 17.4005 348.712 16.5238 348.712 15.4423C348.712 14.3608 347.592 13.4841 346.212 13.4841C344.831 13.4841 343.712 14.3608 343.712 15.4423C343.712 16.5238 344.831 17.4005 346.212 17.4005Z" fill="white"/>
<path opacity="0.4" d="M356.628 17.4005C358.008 17.4005 359.128 16.5238 359.128 15.4423C359.128 14.3608 358.008 13.4841 356.628 13.4841C355.247 13.4841 354.128 14.3608 354.128 15.4423C354.128 16.5238 355.247 17.4005 356.628 17.4005Z" fill="white"/>
<path opacity="0.4" d="M294.131 23.6013C295.511 23.6013 296.631 22.7246 296.631 21.6432C296.631 20.5617 295.511 19.685 294.131 19.685C292.75 19.685 291.631 20.5617 291.631 21.6432C291.631 22.7246 292.75 23.6013 294.131 23.6013Z" fill="white"/>
<path opacity="0.4" d="M304.547 23.6013C305.928 23.6013 307.047 22.7246 307.047 21.6432C307.047 20.5617 305.928 19.685 304.547 19.685C303.167 19.685 302.047 20.5617 302.047 21.6432C302.047 22.7246 303.167 23.6013 304.547 23.6013Z" fill="white"/>
<path opacity="0.4" d="M314.963 23.6013C316.344 23.6013 317.463 22.7246 317.463 21.6432C317.463 20.5617 316.344 19.685 314.963 19.685C313.583 19.685 312.463 20.5617 312.463 21.6432C312.463 22.7246 313.583 23.6013 314.963 23.6013Z" fill="white"/>
<path opacity="0.4" d="M325.379 23.6013C326.76 23.6013 327.879 22.7246 327.879 21.6432C327.879 20.5617 326.76 19.685 325.379 19.685C323.999 19.685 322.879 20.5617 322.879 21.6432C322.879 22.7246 323.999 23.6013 325.379 23.6013Z" fill="white"/>
<path opacity="0.4" d="M335.796 23.6013C337.176 23.6013 338.296 22.7246 338.296 21.6432C338.296 20.5617 337.176 19.685 335.796 19.685C334.415 19.685 333.296 20.5617 333.296 21.6432C333.296 22.7246 334.415 23.6013 335.796 23.6013Z" fill="white"/>
<path opacity="0.4" d="M346.212 23.6013C347.592 23.6013 348.712 22.7246 348.712 21.6432C348.712 20.5617 347.592 19.685 346.212 19.685C344.831 19.685 343.712 20.5617 343.712 21.6432C343.712 22.7246 344.831 23.6013 346.212 23.6013Z" fill="white"/>
<path opacity="0.4" d="M356.628 23.6013C358.008 23.6013 359.128 22.7246 359.128 21.6432C359.128 20.5617 358.008 19.685 356.628 19.685C355.247 19.685 354.128 20.5617 354.128 21.6432C354.128 22.7246 355.247 23.6013 356.628 23.6013Z" fill="white"/>
<path opacity="0.4" d="M294.131 29.8022C295.511 29.8022 296.631 28.9255 296.631 27.844C296.631 26.7625 295.511 25.8858 294.131 25.8858C292.75 25.8858 291.631 26.7625 291.631 27.844C291.631 28.9255 292.75 29.8022 294.131 29.8022Z" fill="white"/>
<path opacity="0.4" d="M304.547 29.8022C305.928 29.8022 307.047 28.9255 307.047 27.844C307.047 26.7625 305.928 25.8858 304.547 25.8858C303.167 25.8858 302.047 26.7625 302.047 27.844C302.047 28.9255 303.167 29.8022 304.547 29.8022Z" fill="white"/>
<path opacity="0.4" d="M314.963 29.8022C316.344 29.8022 317.463 28.9255 317.463 27.844C317.463 26.7625 316.344 25.8858 314.963 25.8858C313.583 25.8858 312.463 26.7625 312.463 27.844C312.463 28.9255 313.583 29.8022 314.963 29.8022Z" fill="white"/>
<path opacity="0.4" d="M325.379 29.8022C326.76 29.8022 327.879 28.9255 327.879 27.844C327.879 26.7625 326.76 25.8858 325.379 25.8858C323.999 25.8858 322.879 26.7625 322.879 27.844C322.879 28.9255 323.999 29.8022 325.379 29.8022Z" fill="white"/>
<path opacity="0.4" d="M335.796 29.8022C337.176 29.8022 338.296 28.9255 338.296 27.844C338.296 26.7625 337.176 25.8858 335.796 25.8858C334.415 25.8858 333.296 26.7625 333.296 27.844C333.296 28.9255 334.415 29.8022 335.796 29.8022Z" fill="white"/>
<path opacity="0.4" d="M346.212 29.8022C347.592 29.8022 348.712 28.9255 348.712 27.844C348.712 26.7625 347.592 25.8858 346.212 25.8858C344.831 25.8858 343.712 26.7625 343.712 27.844C343.712 28.9255 344.831 29.8022 346.212 29.8022Z" fill="white"/>
<path opacity="0.4" d="M356.628 29.8022C358.008 29.8022 359.128 28.9255 359.128 27.844C359.128 26.7625 358.008 25.8858 356.628 25.8858C355.247 25.8858 354.128 26.7625 354.128 27.844C354.128 28.9255 355.247 29.8022 356.628 29.8022Z" fill="white"/>
<path opacity="0.4" d="M294.131 36.0031C295.511 36.0031 296.631 35.1264 296.631 34.0449C296.631 32.9634 295.511 32.0867 294.131 32.0867C292.75 32.0867 291.631 32.9634 291.631 34.0449C291.631 35.1264 292.75 36.0031 294.131 36.0031Z" fill="white"/>
<path opacity="0.4" d="M304.547 36.0031C305.928 36.0031 307.047 35.1264 307.047 34.0449C307.047 32.9634 305.928 32.0867 304.547 32.0867C303.167 32.0867 302.047 32.9634 302.047 34.0449C302.047 35.1264 303.167 36.0031 304.547 36.0031Z" fill="white"/>
<path opacity="0.4" d="M294.131 42.2039C295.511 42.2039 296.631 41.3272 296.631 40.2458C296.631 39.1643 295.511 38.2876 294.131 38.2876C292.75 38.2876 291.631 39.1643 291.631 40.2458C291.631 41.3272 292.75 42.2039 294.131 42.2039Z" fill="white"/>
<path opacity="0.4" d="M304.547 42.2039C305.928 42.2039 307.047 41.3272 307.047 40.2458C307.047 39.1643 305.928 38.2876 304.547 38.2876C303.167 38.2876 302.047 39.1643 302.047 40.2458C302.047 41.3272 303.167 42.2039 304.547 42.2039Z" fill="white"/>
<path opacity="0.4" d="M314.963 42.2039C316.344 42.2039 317.463 41.3272 317.463 40.2458C317.463 39.1643 316.344 38.2876 314.963 38.2876C313.583 38.2876 312.463 39.1643 312.463 40.2458C312.463 41.3272 313.583 42.2039 314.963 42.2039Z" fill="white"/>
<path opacity="0.4" d="M314.963 36.0031C316.344 36.0031 317.463 35.1264 317.463 34.0449C317.463 32.9634 316.344 32.0867 314.963 32.0867C313.583 32.0867 312.463 32.9634 312.463 34.0449C312.463 35.1264 313.583 36.0031 314.963 36.0031Z" fill="white"/>
<path opacity="0.4" d="M325.379 36.0031C326.76 36.0031 327.879 35.1264 327.879 34.0449C327.879 32.9634 326.76 32.0867 325.379 32.0867C323.999 32.0867 322.879 32.9634 322.879 34.0449C322.879 35.1264 323.999 36.0031 325.379 36.0031Z" fill="white"/>
<path opacity="0.4" d="M335.796 36.0031C337.176 36.0031 338.296 35.1264 338.296 34.0449C338.296 32.9634 337.176 32.0867 335.796 32.0867C334.415 32.0867 333.296 32.9634 333.296 34.0449C333.296 35.1264 334.415 36.0031 335.796 36.0031Z" fill="white"/>
<path opacity="0.4" d="M346.212 36.0031C347.592 36.0031 348.712 35.1264 348.712 34.0449C348.712 32.9634 347.592 32.0867 346.212 32.0867C344.831 32.0867 343.712 32.9634 343.712 34.0449C343.712 35.1264 344.831 36.0031 346.212 36.0031Z" fill="white"/>
<path opacity="0.4" d="M356.628 36.0031C358.008 36.0031 359.128 35.1264 359.128 34.0449C359.128 32.9634 358.008 32.0867 356.628 32.0867C355.247 32.0867 354.128 32.9634 354.128 34.0449C354.128 35.1264 355.247 36.0031 356.628 36.0031Z" fill="white"/>
</g>
<path d="M258.27 115.059C255.541 115.059 252.873 114.425 250.604 113.237C248.334 112.049 246.566 110.361 245.521 108.386C244.477 106.411 244.203 104.238 244.736 102.141C245.268 100.044 246.583 98.118 248.512 96.6064C250.442 95.0947 252.901 94.0652 255.578 93.6481C258.255 93.2311 261.029 93.4451 263.551 94.2632C266.073 95.0813 268.228 96.4668 269.744 98.2443C271.26 100.022 272.07 102.112 272.07 104.25C272.065 107.115 270.61 109.863 268.023 111.889C265.436 113.916 261.929 115.055 258.27 115.059V115.059ZM258.27 94.0533C255.696 94.0533 253.179 94.6513 251.038 95.7717C248.898 96.8921 247.229 98.4845 246.244 100.348C245.259 102.211 245.001 104.261 245.503 106.239C246.006 108.217 247.245 110.033 249.066 111.459C250.886 112.885 253.206 113.856 255.731 114.25C258.256 114.643 260.873 114.441 263.252 113.67C265.63 112.898 267.663 111.591 269.093 109.914C270.524 108.238 271.287 106.266 271.287 104.25C271.283 101.546 269.911 98.9546 267.47 97.0431C265.03 95.1316 261.721 94.0564 258.27 94.0533V94.0533Z" fill="#3F3D56"/>
<path d="M263.561 103.214H259.593V100.105C259.593 99.8307 259.453 99.5672 259.205 99.3729C258.957 99.1786 258.621 99.0695 258.27 99.0695C257.919 99.0695 257.583 99.1786 257.335 99.3729C257.087 99.5672 256.947 99.8307 256.947 100.105V103.214H252.979C252.629 103.214 252.292 103.323 252.044 103.517C251.796 103.711 251.657 103.975 251.657 104.25C251.657 104.524 251.796 104.788 252.044 104.982C252.292 105.176 252.629 105.286 252.979 105.286H256.947V108.394C256.947 108.668 257.087 108.932 257.335 109.126C257.583 109.321 257.919 109.43 258.27 109.43C258.621 109.43 258.957 109.321 259.205 109.126C259.453 108.932 259.593 108.668 259.593 108.394V105.286H263.561C263.911 105.286 264.248 105.176 264.496 104.982C264.744 104.788 264.883 104.524 264.883 104.25C264.883 103.975 264.744 103.711 264.496 103.517C264.248 103.323 263.911 103.214 263.561 103.214V103.214Z" fill="white"/>
<g opacity="0.4">
<path opacity="0.4" d="M21.1359 116.386C22.2214 116.386 23.1014 115.697 23.1014 114.846C23.1014 113.996 22.2214 113.307 21.1359 113.307C20.0504 113.307 19.1704 113.996 19.1704 114.846C19.1704 115.697 20.0504 116.386 21.1359 116.386Z" fill="white"/>
<path opacity="0.4" d="M21.1359 109.971C22.2214 109.971 23.1014 109.282 23.1014 108.431C23.1014 107.581 22.2214 106.892 21.1359 106.892C20.0504 106.892 19.1704 107.581 19.1704 108.431C19.1704 109.282 20.0504 109.971 21.1359 109.971Z" fill="white"/>
<path opacity="0.4" d="M21.1359 103.556C22.2214 103.556 23.1014 102.867 23.1014 102.017C23.1014 101.166 22.2214 100.477 21.1359 100.477C20.0504 100.477 19.1704 101.166 19.1704 102.017C19.1704 102.867 20.0504 103.556 21.1359 103.556Z" fill="white"/>
<path opacity="0.4" d="M21.1359 97.1413C22.2214 97.1413 23.1014 96.452 23.1014 95.6018C23.1014 94.7515 22.2214 94.0622 21.1359 94.0622C20.0504 94.0622 19.1704 94.7515 19.1704 95.6018C19.1704 96.452 20.0504 97.1413 21.1359 97.1413Z" fill="white"/>
<path opacity="0.4" d="M21.1359 90.7264C22.2214 90.7264 23.1014 90.0372 23.1014 89.1869C23.1014 88.3366 22.2214 87.6473 21.1359 87.6473C20.0504 87.6473 19.1704 88.3366 19.1704 89.1869C19.1704 90.0372 20.0504 90.7264 21.1359 90.7264Z" fill="white"/>
<path opacity="0.4" d="M21.1359 84.3116C22.2214 84.3116 23.1014 83.6223 23.1014 82.7721C23.1014 81.9218 22.2214 81.2325 21.1359 81.2325C20.0504 81.2325 19.1704 81.9218 19.1704 82.7721C19.1704 83.6223 20.0504 84.3116 21.1359 84.3116Z" fill="white"/>
<path opacity="0.4" d="M21.1359 77.8968C22.2214 77.8968 23.1014 77.2075 23.1014 76.3572C23.1014 75.5069 22.2214 74.8176 21.1359 74.8176C20.0504 74.8176 19.1704 75.5069 19.1704 76.3572C19.1704 77.2075 20.0504 77.8968 21.1359 77.8968Z" fill="white"/>
<path opacity="0.4" d="M27.36 116.386C28.4455 116.386 29.3255 115.697 29.3255 114.846C29.3255 113.996 28.4455 113.307 27.36 113.307C26.2745 113.307 25.3945 113.996 25.3945 114.846C25.3945 115.697 26.2745 116.386 27.36 116.386Z" fill="white"/>
<path opacity="0.4" d="M27.36 109.971C28.4455 109.971 29.3255 109.282 29.3255 108.431C29.3255 107.581 28.4455 106.892 27.36 106.892C26.2745 106.892 25.3945 107.581 25.3945 108.431C25.3945 109.282 26.2745 109.971 27.36 109.971Z" fill="white"/>
<path opacity="0.4" d="M27.36 103.556C28.4455 103.556 29.3255 102.867 29.3255 102.017C29.3255 101.166 28.4455 100.477 27.36 100.477C26.2745 100.477 25.3945 101.166 25.3945 102.017C25.3945 102.867 26.2745 103.556 27.36 103.556Z" fill="white"/>
<path opacity="0.4" d="M27.36 97.1413C28.4455 97.1413 29.3255 96.452 29.3255 95.6018C29.3255 94.7515 28.4455 94.0622 27.36 94.0622C26.2745 94.0622 25.3945 94.7515 25.3945 95.6018C25.3945 96.452 26.2745 97.1413 27.36 97.1413Z" fill="white"/>
<path opacity="0.4" d="M27.36 90.7264C28.4455 90.7264 29.3255 90.0372 29.3255 89.1869C29.3255 88.3366 28.4455 87.6473 27.36 87.6473C26.2745 87.6473 25.3945 88.3366 25.3945 89.1869C25.3945 90.0372 26.2745 90.7264 27.36 90.7264Z" fill="white"/>
<path opacity="0.4" d="M27.36 84.3116C28.4455 84.3116 29.3255 83.6223 29.3255 82.7721C29.3255 81.9218 28.4455 81.2325 27.36 81.2325C26.2745 81.2325 25.3945 81.9218 25.3945 82.7721C25.3945 83.6223 26.2745 84.3116 27.36 84.3116Z" fill="white"/>
<path opacity="0.4" d="M27.36 77.8968C28.4455 77.8968 29.3255 77.2075 29.3255 76.3572C29.3255 75.5069 28.4455 74.8176 27.36 74.8176C26.2745 74.8176 25.3945 75.5069 25.3945 76.3572C25.3945 77.2075 26.2745 77.8968 27.36 77.8968Z" fill="white"/>
<path opacity="0.4" d="M33.5841 116.386C34.6696 116.386 35.5496 115.697 35.5496 114.846C35.5496 113.996 34.6696 113.307 33.5841 113.307C32.4986 113.307 31.6187 113.996 31.6187 114.846C31.6187 115.697 32.4986 116.386 33.5841 116.386Z" fill="white"/>
<path opacity="0.4" d="M33.5841 109.971C34.6696 109.971 35.5496 109.282 35.5496 108.431C35.5496 107.581 34.6696 106.892 33.5841 106.892C32.4986 106.892 31.6187 107.581 31.6187 108.431C31.6187 109.282 32.4986 109.971 33.5841 109.971Z" fill="white"/>
<path opacity="0.4" d="M33.5841 103.556C34.6696 103.556 35.5496 102.867 35.5496 102.017C35.5496 101.166 34.6696 100.477 33.5841 100.477C32.4986 100.477 31.6187 101.166 31.6187 102.017C31.6187 102.867 32.4986 103.556 33.5841 103.556Z" fill="white"/>
<path opacity="0.4" d="M33.5841 97.1413C34.6696 97.1413 35.5496 96.452 35.5496 95.6018C35.5496 94.7515 34.6696 94.0622 33.5841 94.0622C32.4986 94.0622 31.6187 94.7515 31.6187 95.6018C31.6187 96.452 32.4986 97.1413 33.5841 97.1413Z" fill="white"/>
<path opacity="0.4" d="M33.5841 90.7264C34.6696 90.7264 35.5496 90.0372 35.5496 89.1869C35.5496 88.3366 34.6696 87.6473 33.5841 87.6473C32.4986 87.6473 31.6187 88.3366 31.6187 89.1869C31.6187 90.0372 32.4986 90.7264 33.5841 90.7264Z" fill="white"/>
<path opacity="0.4" d="M33.5841 84.3116C34.6696 84.3116 35.5496 83.6223 35.5496 82.7721C35.5496 81.9218 34.6696 81.2325 33.5841 81.2325C32.4986 81.2325 31.6187 81.9218 31.6187 82.7721C31.6187 83.6223 32.4986 84.3116 33.5841 84.3116Z" fill="white"/>
<path opacity="0.4" d="M33.5841 77.8968C34.6696 77.8968 35.5496 77.2075 35.5496 76.3572C35.5496 75.5069 34.6696 74.8176 33.5841 74.8176C32.4986 74.8176 31.6187 75.5069 31.6187 76.3572C31.6187 77.2075 32.4986 77.8968 33.5841 77.8968Z" fill="white"/>
<path opacity="0.4" d="M39.8078 116.386C40.8933 116.386 41.7732 115.697 41.7732 114.846C41.7732 113.996 40.8933 113.307 39.8078 113.307C38.7223 113.307 37.8423 113.996 37.8423 114.846C37.8423 115.697 38.7223 116.386 39.8078 116.386Z" fill="white"/>
<path opacity="0.4" d="M39.8078 109.971C40.8933 109.971 41.7732 109.282 41.7732 108.431C41.7732 107.581 40.8933 106.892 39.8078 106.892C38.7223 106.892 37.8423 107.581 37.8423 108.431C37.8423 109.282 38.7223 109.971 39.8078 109.971Z" fill="white"/>
<path opacity="0.4" d="M46.0319 116.386C47.1174 116.386 47.9974 115.697 47.9974 114.846C47.9974 113.996 47.1174 113.307 46.0319 113.307C44.9464 113.307 44.0664 113.996 44.0664 114.846C44.0664 115.697 44.9464 116.386 46.0319 116.386Z" fill="white"/>
<path opacity="0.4" d="M46.0319 109.971C47.1174 109.971 47.9974 109.282 47.9974 108.431C47.9974 107.581 47.1174 106.892 46.0319 106.892C44.9464 106.892 44.0664 107.581 44.0664 108.431C44.0664 109.282 44.9464 109.971 46.0319 109.971Z" fill="white"/>
<path opacity="0.4" d="M46.0319 103.556C47.1174 103.556 47.9974 102.867 47.9974 102.017C47.9974 101.166 47.1174 100.477 46.0319 100.477C44.9464 100.477 44.0664 101.166 44.0664 102.017C44.0664 102.867 44.9464 103.556 46.0319 103.556Z" fill="white"/>
<path opacity="0.4" d="M39.8078 103.556C40.8933 103.556 41.7732 102.867 41.7732 102.017C41.7732 101.166 40.8933 100.477 39.8078 100.477C38.7223 100.477 37.8423 101.166 37.8423 102.017C37.8423 102.867 38.7223 103.556 39.8078 103.556Z" fill="white"/>
<path opacity="0.4" d="M39.8078 97.1413C40.8933 97.1413 41.7732 96.452 41.7732 95.6018C41.7732 94.7515 40.8933 94.0622 39.8078 94.0622C38.7223 94.0622 37.8423 94.7515 37.8423 95.6018C37.8423 96.452 38.7223 97.1413 39.8078 97.1413Z" fill="white"/>
<path opacity="0.4" d="M39.8078 90.7264C40.8933 90.7264 41.7732 90.0372 41.7732 89.1869C41.7732 88.3366 40.8933 87.6473 39.8078 87.6473C38.7223 87.6473 37.8423 88.3366 37.8423 89.1869C37.8423 90.0372 38.7223 90.7264 39.8078 90.7264Z" fill="white"/>
<path opacity="0.4" d="M39.8078 84.3116C40.8933 84.3116 41.7732 83.6223 41.7732 82.7721C41.7732 81.9218 40.8933 81.2325 39.8078 81.2325C38.7223 81.2325 37.8423 81.9218 37.8423 82.7721C37.8423 83.6223 38.7223 84.3116 39.8078 84.3116Z" fill="white"/>
<path opacity="0.4" d="M39.8078 77.8968C40.8933 77.8968 41.7732 77.2075 41.7732 76.3572C41.7732 75.5069 40.8933 74.8176 39.8078 74.8176C38.7223 74.8176 37.8423 75.5069 37.8423 76.3572C37.8423 77.2075 38.7223 77.8968 39.8078 77.8968Z" fill="white"/>
</g>
<path d="M194.599 10.1138H64.0305C63.3892 10.1143 62.7744 10.3141 62.3209 10.6692C61.8675 11.0244 61.6125 11.506 61.6118 12.0083V99.4633C61.6125 99.9656 61.8675 100.447 62.3209 100.802C62.7744 101.158 63.3892 101.357 64.0305 101.358H194.599C195.24 101.357 195.855 101.158 196.308 100.802C196.762 100.447 197.017 99.9656 197.017 99.4633V12.0083C197.017 11.506 196.762 11.0244 196.308 10.6692C195.855 10.314 195.24 10.1143 194.599 10.1138ZM196.048 99.4633C196.048 99.7647 195.895 100.054 195.624 100.267C195.352 100.481 194.983 100.601 194.599 100.602H64.0305C63.6455 100.602 63.2765 100.481 63.0047 100.268C62.7329 100.054 62.5805 99.7649 62.5811 99.4633V12.0083C62.5805 11.7068 62.7329 11.4174 63.0047 11.2038C63.2765 10.9902 63.6455 10.8699 64.0305 10.8695H194.599C194.983 10.8705 195.352 10.991 195.624 11.2044C195.895 11.4179 196.048 11.7069 196.048 12.0083V99.4633Z" fill="#3F3D56"/>
<path d="M328.987 128H198.419C197.777 128.001 197.163 128.2 196.709 128.555C196.256 128.911 196.001 129.392 196 129.895V217.35C196.001 217.852 196.256 218.333 196.709 218.689C197.163 219.044 197.777 219.244 198.419 219.244H328.987C329.628 219.244 330.243 219.044 330.696 218.689C331.15 218.333 331.405 217.852 331.405 217.35V129.895C331.405 129.392 331.15 128.911 330.696 128.555C330.243 128.2 329.628 128.001 328.987 128ZM330.436 217.35C330.436 217.651 330.283 217.94 330.012 218.153C329.74 218.367 329.372 218.487 328.987 218.488H198.419C198.034 218.488 197.665 218.368 197.393 218.154C197.121 217.94 196.969 217.651 196.969 217.35V129.895C196.969 129.593 197.121 129.304 197.393 129.09C197.665 128.876 198.034 128.756 198.419 128.756H328.987C329.372 128.757 329.74 128.877 330.012 129.091C330.283 129.304 330.436 129.593 330.436 129.895V217.35Z" fill="#3F3D56"/>
<path d="M94.1689 85.8076C94.1689 85.9424 94.1644 86.0772 94.1553 86.2085C94.0237 88.1822 92.93 90.041 91.0999 91.4016C89.2698 92.7621 86.8429 93.5206 84.3198 93.5206C81.7967 93.5206 79.3698 92.7621 77.5397 91.4016C75.7096 90.041 74.6159 88.1822 74.4843 86.2085C74.4752 86.0772 74.4707 85.9424 74.4707 85.8076C74.4699 84.794 74.724 83.7903 75.2186 82.8538C75.7132 81.9172 76.4386 81.0661 77.3533 80.3492C78.2679 79.6323 79.3539 79.0636 80.5493 78.6756C81.7446 78.2876 83.0259 78.0879 84.3198 78.0879C85.6137 78.0879 86.895 78.2876 88.0903 78.6756C89.2857 79.0636 90.3717 79.6323 91.2864 80.3492C92.201 81.0661 92.9264 81.9172 93.421 82.8538C93.9156 83.7903 94.1697 84.794 94.1689 85.8076Z" fill="white"/>
<path d="M228.557 203.694C228.557 203.829 228.553 203.963 228.544 204.095C228.412 206.068 227.318 207.927 225.488 209.288C223.658 210.648 221.231 211.407 218.708 211.407C216.185 211.407 213.758 210.648 211.928 209.288C210.098 207.927 209.004 206.068 208.872 204.095C208.863 203.963 208.859 203.829 208.859 203.694C208.858 202.68 209.112 201.677 209.607 200.74C210.101 199.803 210.827 198.952 211.741 198.235C212.656 197.519 213.742 196.95 214.937 196.562C216.133 196.174 217.414 195.974 218.708 195.974C220.002 195.974 221.283 196.174 222.479 196.562C223.674 196.95 224.76 197.519 225.675 198.235C226.589 198.952 227.315 199.803 227.809 200.74C228.304 201.677 228.558 202.68 228.557 203.694Z" fill="white"/>
<path d="M184.453 80.6632H107.064C106.629 80.6637 106.212 80.7995 105.905 81.0406C105.597 81.2817 105.425 81.6086 105.425 81.9493C105.425 82.2901 105.597 82.6169 105.905 82.858C106.212 83.0992 106.629 83.2349 107.064 83.2354H184.453C184.888 83.2349 185.305 83.0992 185.612 82.858C185.92 82.6169 186.092 82.2901 186.092 81.9493C186.092 81.6086 185.92 81.2817 185.612 81.0406C185.305 80.7995 184.888 80.6637 184.453 80.6632V80.6632Z" fill="#3F3D56"/>
<path d="M318.841 198.549H241.452C241.017 198.55 240.6 198.686 240.293 198.927C239.986 199.168 239.813 199.495 239.813 199.836C239.813 200.176 239.986 200.503 240.293 200.744C240.6 200.985 241.017 201.121 241.452 201.122H318.841C319.276 201.121 319.693 200.985 320 200.744C320.308 200.503 320.481 200.176 320.481 199.836C320.481 199.495 320.308 199.168 320 198.927C319.693 198.686 319.276 198.55 318.841 198.549V198.549Z" fill="#3F3D56"/>
<path d="M140.364 88.3798H107.064C106.629 88.3798 106.212 88.5151 105.905 88.7559C105.597 88.9968 105.424 89.3235 105.424 89.6641C105.424 90.0047 105.597 90.3314 105.905 90.5722C106.212 90.8131 106.629 90.9484 107.064 90.9484H140.364C140.799 90.9484 141.216 90.8131 141.523 90.5722C141.831 90.3314 142.003 90.0047 142.003 89.6641C142.003 89.3235 141.831 88.9968 141.523 88.7559C141.216 88.5151 140.799 88.3798 140.364 88.3798Z" fill="white"/>
<path d="M274.752 206.266H241.452C241.017 206.266 240.6 206.401 240.293 206.642C239.985 206.883 239.812 207.21 239.812 207.55C239.812 207.891 239.985 208.218 240.293 208.458C240.6 208.699 241.017 208.835 241.452 208.835H274.752C275.187 208.835 275.604 208.699 275.911 208.458C276.219 208.218 276.392 207.891 276.392 207.55C276.392 207.21 276.219 206.883 275.911 206.642C275.604 206.401 275.187 206.266 274.752 206.266Z" fill="white"/>
<path d="M225.619 71.5806H95.0515C94.1648 71.5798 93.3146 71.3035 92.6876 70.8123C92.0606 70.3211 91.708 69.6551 91.707 68.9605V24.0777C91.708 23.3831 92.0607 22.7172 92.6877 22.226C93.3147 21.7349 94.1648 21.4586 95.0515 21.4578H225.619C226.506 21.4586 227.356 21.7349 227.983 22.226C228.61 22.7172 228.962 23.3831 228.963 24.0777V68.9605C228.962 69.6551 228.61 70.3211 227.983 70.8123C227.356 71.3035 226.506 71.5798 225.619 71.5806V71.5806ZM95.0515 22.3771C94.476 22.3776 93.9242 22.557 93.5172 22.8758C93.1102 23.1946 92.8813 23.6268 92.8807 24.0777V68.9605C92.8813 69.4114 93.1102 69.8437 93.5172 70.1625C93.9241 70.4813 94.476 70.6607 95.0515 70.6613H225.619C226.194 70.6607 226.746 70.4813 227.153 70.1625C227.56 69.8437 227.789 69.4114 227.79 68.9605V24.0777C227.789 23.6268 227.56 23.1946 227.153 22.8758C226.746 22.557 226.194 22.3776 225.619 22.3771H95.0515Z" fill="white"/>
<path d="M360.007 189.467H229.44C228.553 189.466 227.703 189.19 227.076 188.699C226.449 188.207 226.096 187.541 226.095 186.847V141.964C226.096 141.269 226.449 140.603 227.076 140.112C227.703 139.621 228.553 139.345 229.44 139.344H360.007C360.894 139.345 361.744 139.621 362.371 140.112C362.998 140.603 363.351 141.269 363.352 141.964V186.847C363.351 187.541 362.998 188.207 362.371 188.699C361.744 189.19 360.894 189.466 360.007 189.467V189.467ZM229.44 140.263C228.864 140.264 228.312 140.443 227.905 140.762C227.498 141.081 227.27 141.513 227.269 141.964V186.847C227.27 187.298 227.498 187.73 227.905 188.049C228.312 188.368 228.864 188.547 229.44 188.547H360.007C360.583 188.547 361.134 188.368 361.541 188.049C361.948 187.73 362.177 187.298 362.178 186.847V141.964C362.177 141.513 361.948 141.081 361.541 140.762C361.134 140.443 360.583 140.264 360.007 140.263H229.44Z" fill="white"/>
<path d="M121.642 37.8281C121.206 37.8281 120.789 37.9636 120.481 38.2047C120.173 38.4459 120 38.7729 120 39.1139C120 39.455 120.173 39.782 120.481 40.0232C120.789 40.2643 121.206 40.3998 121.642 40.3998H199.029C199.464 40.3998 199.881 40.2643 200.189 40.0232C200.497 39.782 200.67 39.455 200.67 39.1139C200.67 38.7729 200.497 38.4459 200.189 38.2047C199.881 37.9636 199.464 37.8281 199.029 37.8281H121.642Z" fill="white"/>
<path d="M256.03 155.714C255.594 155.714 255.177 155.85 254.869 156.091C254.561 156.332 254.388 156.659 254.388 157C254.388 157.341 254.561 157.668 254.869 157.909C255.177 158.151 255.594 158.286 256.03 158.286H333.417C333.852 158.286 334.27 158.151 334.578 157.909C334.885 157.668 335.058 157.341 335.058 157C335.058 156.659 334.885 156.332 334.578 156.091C334.27 155.85 333.852 155.714 333.417 155.714H256.03Z" fill="white"/>
<path d="M121.642 45.2786C121.206 45.2786 120.789 45.414 120.481 45.6552C120.173 45.8963 120 46.2234 120 46.5644C120 46.9054 120.173 47.2325 120.481 47.4736C120.789 47.7147 121.206 47.8502 121.642 47.8502H199.029C199.464 47.8497 199.88 47.714 200.188 47.4729C200.495 47.2318 200.668 46.9051 200.668 46.5644C200.668 46.2237 200.495 45.897 200.188 45.6559C199.88 45.4148 199.464 45.2791 199.029 45.2786H121.642Z" fill="white"/>
<path d="M256.03 163.165C255.594 163.165 255.177 163.3 254.869 163.541C254.561 163.783 254.388 164.11 254.388 164.451C254.388 164.792 254.561 165.119 254.869 165.36C255.177 165.601 255.594 165.736 256.03 165.736H333.417C333.852 165.736 334.269 165.6 334.576 165.359C334.883 165.118 335.056 164.791 335.056 164.451C335.056 164.11 334.883 163.783 334.576 163.542C334.269 163.301 333.852 163.165 333.417 163.165H256.03Z" fill="white"/>
<path d="M121.642 52.6387C121.206 52.6387 120.789 52.7741 120.481 53.0153C120.173 53.2564 120 53.5835 120 53.9245C120 54.2655 120.173 54.5926 120.481 54.8337C120.789 55.0749 121.206 55.2103 121.642 55.2103H154.941C155.376 55.2098 155.793 55.0741 156.101 54.833C156.408 54.5919 156.58 54.2652 156.58 53.9245C156.58 53.5838 156.408 53.2571 156.101 53.016C155.793 52.7749 155.376 52.6392 154.941 52.6387H121.642Z" fill="white"/>
<path d="M256.03 170.525C255.594 170.525 255.177 170.66 254.869 170.902C254.561 171.143 254.388 171.47 254.388 171.811C254.388 172.152 254.561 172.479 254.869 172.72C255.177 172.961 255.594 173.097 256.03 173.097H289.33C289.765 173.096 290.181 172.96 290.489 172.719C290.796 172.478 290.969 172.151 290.969 171.811C290.969 171.47 290.796 171.143 290.489 170.902C290.181 170.661 289.765 170.525 289.33 170.525H256.03Z" fill="white"/>
<path d="M247.146 90.5963L234.032 76.0991L238.277 76.792C238.353 76.8044 238.431 76.8049 238.506 76.7936C238.582 76.7824 238.654 76.7596 238.719 76.7265C238.783 76.6933 238.839 76.6506 238.882 76.6007C238.926 76.5508 238.956 76.4946 238.972 76.4355C238.988 76.3763 238.988 76.3153 238.974 76.256C238.96 76.1966 238.93 76.1401 238.888 76.0896C238.846 76.039 238.791 75.9955 238.728 75.9615C238.664 75.9275 238.592 75.9036 238.517 75.8913L232.19 74.8597L231.336 79.8765C231.326 79.9364 231.331 79.9974 231.35 80.0559C231.37 80.1145 231.404 80.1694 231.451 80.2175C231.498 80.2656 231.557 80.306 231.624 80.3364C231.69 80.3668 231.764 80.3866 231.841 80.3946C231.917 80.4025 231.995 80.3986 232.07 80.383C232.145 80.3674 232.215 80.3404 232.276 80.3035C232.337 80.2667 232.389 80.2207 232.427 80.1683C232.466 80.1158 232.491 80.058 232.501 79.9979L233.073 76.6291L246.188 91.1279C246.233 91.1771 246.289 91.219 246.355 91.2511C246.42 91.2833 246.492 91.305 246.568 91.3152C246.644 91.3253 246.722 91.3236 246.797 91.3102C246.872 91.2968 246.943 91.272 247.006 91.2371C247.069 91.2022 247.123 91.1579 247.164 91.1068C247.205 91.0558 247.232 90.9988 247.245 90.9393C247.258 90.8798 247.256 90.8189 247.239 90.7601C247.222 90.7012 247.19 90.6456 247.146 90.5964V90.5963Z" fill="white"/>
<path d="M175.921 132.79H82.7086C82.2509 132.79 81.8122 132.647 81.4886 132.394C81.165 132.14 80.983 131.797 80.9824 131.438V113.327C80.983 112.968 81.165 112.625 81.4886 112.371C81.8122 112.118 82.2509 111.975 82.7086 111.975H175.921C176.378 111.975 176.817 112.118 177.141 112.371C177.464 112.625 177.646 112.968 177.647 113.327V131.438C177.646 131.797 177.464 132.14 177.141 132.394C176.817 132.647 176.378 132.79 175.921 132.79V132.79ZM82.7086 112.516C82.434 112.516 82.1707 112.601 81.9766 112.753C81.7824 112.906 81.6732 113.112 81.6729 113.327V131.438C81.6732 131.653 81.7824 131.86 81.9766 132.012C82.1707 132.164 82.434 132.249 82.7086 132.25H175.921C176.195 132.249 176.458 132.164 176.653 132.012C176.847 131.86 176.956 131.653 176.956 131.438V113.327C176.956 113.112 176.847 112.906 176.653 112.753C176.458 112.601 176.195 112.516 175.921 112.516H82.7086Z" fill="#3F3D56"/>
<path d="M175.921 157.816H82.7086C82.2509 157.815 81.8122 157.673 81.4886 157.419C81.165 157.166 80.983 156.822 80.9824 156.464V138.352C80.983 137.994 81.165 137.65 81.4886 137.396C81.8122 137.143 82.2509 137 82.7086 137H175.921C176.378 137 176.817 137.143 177.141 137.396C177.464 137.65 177.646 137.994 177.647 138.352V156.464C177.646 156.822 177.464 157.166 177.141 157.419C176.817 157.673 176.378 157.815 175.921 157.816V157.816ZM82.7086 137.541C82.434 137.541 82.1707 137.627 81.9766 137.779C81.7824 137.931 81.6732 138.137 81.6729 138.352V156.464C81.6732 156.679 81.7824 156.885 81.9766 157.037C82.1707 157.189 82.434 157.275 82.7086 157.275H175.921C176.195 157.275 176.458 157.189 176.653 157.037C176.847 156.885 176.956 156.679 176.956 156.464V138.352C176.956 138.137 176.847 137.931 176.653 137.779C176.458 137.627 176.195 137.541 175.921 137.541H82.7086Z" fill="#3F3D56"/>
<path d="M175.921 182.841H82.7086C82.2509 182.84 81.8122 182.698 81.4886 182.444C81.165 182.191 80.983 181.847 80.9824 181.489V163.377C80.983 163.019 81.165 162.675 81.4886 162.422C81.8122 162.168 82.2509 162.026 82.7086 162.025H175.921C176.378 162.026 176.817 162.168 177.141 162.422C177.464 162.675 177.646 163.019 177.647 163.377V181.489C177.646 181.847 177.464 182.191 177.141 182.444C176.817 182.698 176.378 182.84 175.921 182.841V182.841ZM82.7086 162.566C82.434 162.566 82.1707 162.652 81.9766 162.804C81.7824 162.956 81.6732 163.162 81.6729 163.377V181.489C81.6732 181.704 81.7824 181.91 81.9766 182.062C82.1707 182.214 82.434 182.3 82.7086 182.3H175.921C176.195 182.3 176.458 182.214 176.653 182.062C176.847 181.91 176.956 181.704 176.956 181.489V163.377C176.956 163.162 176.847 162.956 176.653 162.804C176.458 162.652 176.195 162.566 175.921 162.566H82.7086Z" fill="#3F3D56"/>
<path d="M175.921 207.866H82.7086C82.2509 207.866 81.8122 207.723 81.4886 207.47C81.165 207.216 80.983 206.873 80.9824 206.514V188.403C80.983 188.044 81.165 187.701 81.4886 187.447C81.8122 187.194 82.2509 187.051 82.7086 187.051H175.921C176.378 187.051 176.817 187.194 177.141 187.447C177.464 187.701 177.646 188.044 177.647 188.403V206.514C177.646 206.873 177.464 207.216 177.141 207.47C176.817 207.723 176.378 207.866 175.921 207.866V207.866ZM82.7086 187.591C82.434 187.592 82.1707 187.677 81.9766 187.829C81.7824 187.981 81.6732 188.188 81.6729 188.403V206.514C81.6732 206.729 81.7824 206.935 81.9766 207.087C82.1707 207.24 82.434 207.325 82.7086 207.325H175.921C176.195 207.325 176.458 207.24 176.653 207.087C176.847 206.935 176.956 206.729 176.956 206.514V188.403C176.956 188.188 176.847 187.981 176.653 187.829C176.458 187.677 176.195 187.592 175.921 187.591H82.7086Z" fill="#3F3D56"/>
<path d="M97.1916 127.195C101.075 127.195 104.223 124.729 104.223 121.688C104.223 118.646 101.075 116.18 97.1916 116.18C93.3082 116.18 90.1602 118.646 90.1602 121.688C90.1602 124.729 93.3082 127.195 97.1916 127.195Z" fill="white"/>
<path d="M97.1916 152.221C101.075 152.221 104.223 149.755 104.223 146.713C104.223 143.671 101.075 141.205 97.1916 141.205C93.3082 141.205 90.1602 143.671 90.1602 146.713C90.1602 149.755 93.3082 152.221 97.1916 152.221Z" fill="white"/>
<path d="M97.1916 177.246C101.075 177.246 104.223 174.78 104.223 171.738C104.223 168.696 101.075 166.23 97.1916 166.23C93.3082 166.23 90.1602 168.696 90.1602 171.738C90.1602 174.78 93.3082 177.246 97.1916 177.246Z" fill="white"/>
<path d="M97.1916 202.271C101.075 202.271 104.223 199.805 104.223 196.763C104.223 193.722 101.075 191.256 97.1916 191.256C93.3082 191.256 90.1602 193.722 90.1602 196.763C90.1602 199.805 93.3082 202.271 97.1916 202.271Z" fill="white"/>
<path d="M113.431 118.016C113.277 118.016 113.124 118.039 112.982 118.085C112.839 118.131 112.71 118.199 112.601 118.284C112.492 118.369 112.405 118.471 112.346 118.582C112.287 118.694 112.257 118.813 112.257 118.934C112.257 119.054 112.287 119.174 112.346 119.285C112.405 119.397 112.492 119.498 112.601 119.583C112.71 119.669 112.839 119.736 112.982 119.782C113.124 119.828 113.277 119.852 113.431 119.852H168.678C168.988 119.852 169.286 119.755 169.506 119.583C169.726 119.411 169.849 119.177 169.849 118.934C169.849 118.69 169.726 118.457 169.506 118.285C169.286 118.112 168.988 118.016 168.678 118.016H113.431Z" fill="white"/>
<path d="M113.431 143.041C113.277 143.041 113.124 143.064 112.982 143.11C112.839 143.156 112.71 143.224 112.601 143.309C112.492 143.395 112.405 143.496 112.346 143.607C112.287 143.719 112.257 143.838 112.257 143.959C112.257 144.08 112.287 144.199 112.346 144.311C112.405 144.422 112.492 144.523 112.601 144.609C112.71 144.694 112.839 144.761 112.982 144.808C113.124 144.854 113.277 144.877 113.431 144.877H168.678C168.988 144.877 169.286 144.78 169.506 144.608C169.726 144.436 169.849 144.202 169.849 143.959C169.849 143.716 169.726 143.482 169.506 143.31C169.286 143.138 168.988 143.041 168.678 143.041H113.431Z" fill="white"/>
<path d="M113.431 168.066C113.277 168.066 113.124 168.09 112.982 168.136C112.839 168.182 112.71 168.249 112.601 168.335C112.492 168.42 112.405 168.521 112.346 168.633C112.287 168.744 112.257 168.864 112.257 168.984C112.257 169.105 112.287 169.224 112.346 169.336C112.405 169.447 112.492 169.549 112.601 169.634C112.71 169.719 112.839 169.787 112.982 169.833C113.124 169.879 113.277 169.902 113.431 169.902H168.678C168.988 169.902 169.286 169.805 169.506 169.633C169.726 169.461 169.849 169.228 169.849 168.984C169.849 168.741 169.726 168.507 169.506 168.335C169.286 168.163 168.988 168.066 168.678 168.066H113.431Z" fill="white"/>
<path d="M113.431 193.092C113.277 193.091 113.124 193.115 112.982 193.161C112.839 193.207 112.71 193.275 112.601 193.36C112.492 193.445 112.405 193.546 112.346 193.658C112.287 193.769 112.257 193.889 112.257 194.01C112.257 194.13 112.287 194.25 112.346 194.361C112.405 194.473 112.492 194.574 112.601 194.659C112.71 194.744 112.839 194.812 112.982 194.858C113.124 194.904 113.277 194.928 113.431 194.927H168.678C168.988 194.927 169.286 194.831 169.506 194.659C169.726 194.486 169.849 194.253 169.849 194.01C169.849 193.766 169.726 193.533 169.506 193.36C169.286 193.188 168.988 193.092 168.678 193.092H113.431Z" fill="white"/>
<path d="M113.431 123.523C113.277 123.523 113.124 123.547 112.982 123.593C112.839 123.639 112.71 123.706 112.601 123.792C112.492 123.877 112.405 123.978 112.346 124.09C112.287 124.201 112.257 124.321 112.257 124.441C112.257 124.562 112.287 124.682 112.346 124.793C112.405 124.905 112.492 125.006 112.601 125.091C112.71 125.176 112.839 125.244 112.982 125.29C113.124 125.336 113.277 125.36 113.431 125.359H137.204C137.515 125.359 137.813 125.263 138.032 125.09C138.252 124.918 138.376 124.685 138.376 124.441C138.376 124.198 138.252 123.964 138.032 123.792C137.813 123.62 137.515 123.523 137.204 123.523H113.431Z" fill="white"/>
<path d="M113.431 148.549C113.277 148.548 113.124 148.572 112.982 148.618C112.839 148.664 112.71 148.732 112.601 148.817C112.492 148.902 112.405 149.003 112.346 149.115C112.287 149.226 112.257 149.346 112.257 149.467C112.257 149.587 112.287 149.707 112.346 149.818C112.405 149.93 112.492 150.031 112.601 150.116C112.71 150.202 112.839 150.269 112.982 150.315C113.124 150.361 113.277 150.385 113.431 150.385H137.204C137.515 150.385 137.813 150.288 138.032 150.116C138.252 149.944 138.376 149.71 138.376 149.467C138.376 149.223 138.252 148.99 138.032 148.818C137.813 148.645 137.515 148.549 137.204 148.549H113.431Z" fill="white"/>
<path d="M113.431 173.574C113.277 173.574 113.124 173.597 112.982 173.643C112.839 173.689 112.71 173.757 112.601 173.842C112.492 173.927 112.405 174.029 112.346 174.14C112.287 174.252 112.257 174.371 112.257 174.492C112.257 174.613 112.287 174.732 112.346 174.844C112.405 174.955 112.492 175.056 112.601 175.142C112.71 175.227 112.839 175.294 112.982 175.34C113.124 175.387 113.277 175.41 113.431 175.41H137.204C137.515 175.41 137.813 175.313 138.032 175.141C138.252 174.969 138.376 174.735 138.376 174.492C138.376 174.248 138.252 174.015 138.032 173.843C137.813 173.671 137.515 173.574 137.204 173.574H113.431Z" fill="white"/>
<path d="M113.431 198.599C113.277 198.599 113.124 198.623 112.982 198.669C112.839 198.715 112.71 198.782 112.601 198.867C112.492 198.953 112.405 199.054 112.346 199.166C112.287 199.277 112.257 199.396 112.257 199.517C112.257 199.638 112.287 199.757 112.346 199.869C112.405 199.98 112.492 200.082 112.601 200.167C112.71 200.252 112.839 200.32 112.982 200.366C113.124 200.412 113.277 200.435 113.431 200.435H137.204C137.515 200.435 137.813 200.338 138.032 200.166C138.252 199.994 138.376 199.761 138.376 199.517C138.376 199.274 138.252 199.04 138.032 198.868C137.813 198.696 137.515 198.599 137.204 198.599H113.431Z" fill="white"/>
<path d="M298.905 68.2633H340.332C340.79 68.2637 341.229 68.4063 341.552 68.6598C341.876 68.9133 342.058 69.2569 342.059 69.6154V103.411C342.058 103.77 341.876 104.113 341.552 104.367C341.229 104.62 340.79 104.763 340.332 104.763H298.905C298.447 104.763 298.008 104.62 297.685 104.367C297.361 104.113 297.179 103.77 297.179 103.411V69.6154C297.179 69.2569 297.361 68.9133 297.685 68.6598C298.008 68.4063 298.447 68.2637 298.905 68.2633V68.2633ZM340.332 104.222C340.607 104.222 340.87 104.137 341.064 103.985C341.259 103.832 341.368 103.626 341.368 103.411V69.6154C341.368 69.4003 341.259 69.1941 341.064 69.042C340.87 68.8899 340.607 68.8044 340.332 68.8041H298.905C298.63 68.8044 298.367 68.8899 298.173 69.042C297.979 69.1941 297.869 69.4003 297.869 69.6154V103.411C297.869 103.626 297.979 103.832 298.173 103.985C298.367 104.137 298.63 104.222 298.905 104.222H340.332Z" fill="#3F3D56"/>
<path d="M331.505 97.7939C331.816 97.7939 332.114 97.6972 332.334 97.525C332.554 97.3529 332.677 97.1194 332.677 96.8759C332.677 96.6325 332.554 96.399 332.334 96.2269C332.114 96.0547 331.816 95.958 331.505 95.958H307.732C307.422 95.958 307.124 96.0547 306.904 96.2269C306.684 96.399 306.561 96.6325 306.561 96.8759C306.561 97.1194 306.684 97.3529 306.904 97.525C307.124 97.6972 307.422 97.7939 307.732 97.7939H331.505Z" fill="white"/>
<path d="M331.506 92.3856C331.66 92.3858 331.812 92.3622 331.955 92.3162C332.097 92.2702 332.227 92.2026 332.336 92.1173C332.445 92.0321 332.531 91.9308 332.59 91.8193C332.649 91.7078 332.68 91.5883 332.68 91.4676C332.68 91.347 332.649 91.2274 332.59 91.116C332.531 91.0045 332.445 90.9032 332.336 90.8179C332.227 90.7327 332.097 90.6651 331.955 90.6191C331.812 90.573 331.66 90.5495 331.506 90.5497H307.733C307.579 90.5495 307.426 90.573 307.284 90.6191C307.141 90.6651 307.012 90.7327 306.903 90.8179C306.794 90.9032 306.707 91.0045 306.648 91.116C306.589 91.2274 306.559 91.347 306.559 91.4676C306.559 91.5883 306.589 91.7078 306.648 91.8193C306.707 91.9308 306.794 92.0321 306.903 92.1173C307.012 92.2026 307.141 92.2702 307.284 92.3162C307.426 92.3622 307.579 92.3858 307.733 92.3856H331.506Z" fill="white"/>
<path d="M319.619 75.2325C321.078 75.2325 322.504 75.5714 323.717 76.2063C324.93 76.8412 325.875 77.7436 326.434 78.7995C326.992 79.8553 327.138 81.017 326.854 82.1379C326.569 83.2587 325.866 84.2883 324.835 85.0964C323.803 85.9044 322.489 86.4548 321.058 86.6777C319.627 86.9007 318.144 86.7862 316.796 86.3489C315.448 85.9116 314.296 85.171 313.485 84.2208C312.675 83.2706 312.242 82.1534 312.242 81.0106C312.244 79.4787 313.022 78.0101 314.405 76.9268C315.788 75.8436 317.663 75.2343 319.619 75.2325Z" fill="white"/>
</svg>
