<svg width="200" height="200" viewBox="0 0 200 200" fill="none" xmlns="http://www.w3.org/2000/svg">
<rect width="200" height="200" rx="100" fill="#4F48EC" fill-opacity="0.1"/>
<g clip-path="url(#clip0)">
<path d="M54.1665 55.1765H145.833V144.343H54.1665V55.1765Z" fill="#2E001F"/>
<path d="M50 51.01V148.51H150V51.01H50ZM54.1667 55.1767H145.833V144.343H54.1667V55.1767Z" fill="#FF26BE"/>
<path d="M122.625 91.9683C122 91.6766 121.209 91.5516 120.209 91.5516C114.959 91.5516 111.459 95.5933 111.459 102.302C111.459 109.968 115.042 113.052 119.709 113.052C120.709 113.052 121.792 112.927 122.584 112.593V91.9683H122.625ZM103.959 102.635C103.959 92.9266 110.209 85.3433 120.459 85.3433C121.334 85.3433 121.792 85.3433 122.625 85.4266V74.5933C122.625 74.3433 122.834 74.1767 123.042 74.1767H129.75C130.084 74.1767 130.167 74.3017 130.167 74.51V112.593C130.167 113.718 130.167 115.135 130.375 116.677C130.375 116.968 130.375 117.01 130.125 117.135C126.625 118.802 122.959 119.552 119.459 119.552C110.417 119.552 103.959 113.968 103.959 102.635V102.635ZM89.7504 95.885L101.417 118.51C101.625 118.843 101.5 119.177 101.167 119.177H93.9171C93.4588 119.177 93.2504 119.052 93.0421 118.635C90.3754 113.135 87.6671 107.427 84.8754 101.51H84.7921C82.2921 107.093 79.5421 113.177 76.8754 118.677C76.6671 119.01 76.4588 119.135 76.1254 119.135H69.2088C68.7921 119.135 68.7504 118.802 68.9588 118.552L80.3754 96.5933L69.3338 74.76C69.0838 74.4267 69.3338 74.135 69.6254 74.135H76.7921C77.2088 74.135 77.4171 74.2183 77.5421 74.5933C80.1671 80.135 82.8338 85.5933 85.3338 91.1766H85.4171C87.8338 85.6766 90.5004 80.135 93.0421 74.6767C93.2504 74.3433 93.3754 74.135 93.7921 74.135H100.5C100.834 74.135 100.959 74.385 100.75 74.76L89.7504 95.885V95.885Z" fill="#FFD9F2"/>
</g>
<defs>
<clipPath id="clip0">
<rect x="50" y="51" width="100" height="97.52" fill="white"/>
</clipPath>
</defs>
</svg>
