<svg width="121" height="121" viewBox="0 0 121 121" fill="none" xmlns="http://www.w3.org/2000/svg">
<g clip-path="url(#clip0)">
<path d="M0.484863 0.426392L0.484863 120.426H120.485V0.426392L0.484863 0.426392ZM51.4703 86.5655L40.3755 63.7006L29.6709 86.5109H19.2379L34.5913 57.2614L19.7467 27.6842H30.5753L41.0852 50.1671L51.5069 27.6296H61.6717L46.8149 56.3335L62.549 86.5655H51.4703ZM99.0388 84.1644C94.4549 86.3473 89.6526 87.3296 85.0687 87.3296C73.2271 87.3842 64.7688 80.0717 64.7688 65.2285C65.1541 50.0232 75.2856 41.5386 89.489 42.691V27.6842H99.2024V78.2164C99.2226 84.2429 99.8878 83.6633 99.0388 84.1644ZM89.4888 51.2586V78.2708C79.9012 80.7587 74.6001 74.9239 74.6458 64.7919C74.6819 54.4011 81.5088 49.0083 89.4888 51.2586Z" fill="#2E001F"/>
<rect x="2.48486" y="2.42627" width="116" height="116" stroke="#FF26BE" stroke-width="4"/>
</g>
<defs>
<clipPath id="clip0">
<rect width="120" height="120" fill="white" transform="translate(0.484863 0.426392)"/>
</clipPath>
</defs>
</svg>
